<svg width="363" height="136" viewBox="0 0 363 136" fill="none" xmlns="http://www.w3.org/2000/svg">
<path d="M47.0562 37.1821C47.0562 37.1821 52.3247 22.0897 60.6127 22.0897C60.6127 22.0897 65.1356 7.38329 92.2361 13.0367C92.2361 13.0367 114.826 -12.989 142.685 8.50402C170.543 30.0095 167.909 72.6344 167.909 72.6344C167.909 72.6344 204.043 20.5705 256.367 65.8478C256.367 65.8478 306.058 50.7554 327.132 119.045C327.132 119.045 353.487 105.086 362.135 135.644H0C0 135.644 4.52296 65.8478 43.664 58.6876C43.664 58.6876 40.3836 48.7007 47.0562 37.1821Z" fill="url(#paint0_linear_201_1165)"/>
<defs>
<linearGradient id="paint0_linear_201_1165" x1="181.068" y1="103.5" x2="181.068" y2="198.396" gradientUnits="userSpaceOnUse">
<stop stop-color="white"/>
<stop offset="1" stop-color="white" stop-opacity="0"/>
</linearGradient>
</defs>
</svg>
