<svg width="521" height="305" viewBox="0 0 521 305" fill="none" xmlns="http://www.w3.org/2000/svg">
<path d="M-0.000183105 75.8801C-0.000183105 75.8801 10.0648 75.4267 12.1142 81.3524C12.1142 81.3524 13.477 73.8268 18.7149 73.8268C18.7149 73.8268 13.9347 64.253 27.1361 61.7462C27.1361 61.7462 25.0867 56.274 30.5483 51.9432C30.5483 51.9432 18.2624 36.8972 28.0464 23.9046C37.8304 10.912 45.7939 16.1549 45.7939 16.1549C45.7939 16.1549 56.4882 6.12254 69.0031 13.1895C69.0031 13.1895 79.2396 -3.45122 98.584 0.650328C117.923 4.75188 127.478 14.3308 127.707 24.5873C127.707 24.5873 137.262 33.249 129.757 47.383C129.757 47.383 141.132 48.5243 140.904 59.0101C140.904 59.0101 153.871 64.7116 153.871 75.4267C153.871 86.1418 160.009 95.7521 144.924 103.116C144.924 103.116 160.846 108.474 152.779 123.629C152.779 123.629 162.661 123.025 162.459 131.916C162.459 131.916 174.354 125.047 182.422 131.916C182.422 131.916 195.129 138.581 193.111 147.676C193.111 147.676 211.868 161.82 200.169 178.388C188.471 194.955 174.157 190.307 174.157 190.307C174.157 190.307 176.175 194.752 171.129 199.401C171.129 199.401 191.036 209.642 182.895 227.544C182.895 227.544 189.454 233.438 185.61 242.277C185.61 242.277 192.851 245.675 191.493 251.116C191.493 251.116 199.41 254.06 196.924 261.768C196.924 261.768 215.472 241.824 236.507 257.234C236.507 257.234 238.088 249.526 243.971 249.756C243.971 249.756 238.77 235.476 252.793 236.836C252.793 236.836 251.664 229.128 255.961 228.451C255.961 228.451 249.264 207.948 266.268 194.838C273.817 188.014 322.077 171.586 323.56 213.201C323.56 213.201 336.907 215.291 335.877 224.156C335.877 224.156 341.921 226.965 341.037 230.212C341.037 230.212 358.727 225.782 359.908 236.711C359.908 236.711 367.575 238.04 367.575 243.361C367.575 243.361 370.378 242.329 371.85 243.361C371.85 243.361 370.228 235.382 379.075 233.021C379.075 233.021 389.806 214.087 408.105 217.011C408.105 217.011 406.545 196.957 431.949 198.265C457.353 199.568 446.929 217.845 446.929 217.845C446.929 217.845 457.036 218.017 456.536 224.271C456.536 224.271 476.515 227.299 461.056 244.695C461.056 244.695 464.734 244.19 464.734 246.472C464.734 246.472 521.961 250.136 504.036 295.743C504.036 295.743 519.396 291.49 520.01 305.004H0.0102539V75.8801H-0.000183105Z" fill="url(#paint0_linear_201_1167)"/>
<defs>
<linearGradient id="paint0_linear_201_1167" x1="267.36" y1="63.6109" x2="271.26" y2="328.799" gradientUnits="userSpaceOnUse">
<stop offset="0.458527" stop-color="white"/>
<stop offset="0.81703" stop-color="white" stop-opacity="0.625"/>
<stop offset="1" stop-color="white" stop-opacity="0"/>
</linearGradient>
</defs>
</svg>
