<svg width="418" height="157" viewBox="0 0 418 157" fill="none" xmlns="http://www.w3.org/2000/svg">
<path d="M54.2054 42.8312C54.2054 42.8312 60.2743 25.4457 69.8214 25.4457C69.8214 25.4457 75.0316 8.50503 106.249 15.0174C106.249 15.0174 132.271 -14.9624 164.362 9.79602C196.453 34.5688 193.419 83.6696 193.419 83.6696C193.419 83.6696 235.043 23.6957 295.317 75.8519C295.317 75.8519 352.557 58.4665 376.832 137.131C376.832 137.131 407.192 121.051 417.154 156.252H0C0 156.252 5.21013 75.8519 50.2978 67.6039C50.2978 67.6039 46.519 56.0997 54.2054 42.8312Z" fill="url(#paint0_linear_400_422)"/>
<defs>
<linearGradient id="paint0_linear_400_422" x1="208.577" y1="54.0857" x2="208.577" y2="318.081" gradientUnits="userSpaceOnUse">
<stop offset="0.095" stop-color="white"/>
<stop offset="0.74" stop-color="white" stop-opacity="0"/>
</linearGradient>
</defs>
</svg>
