<svg width="238" height="157" viewBox="0 0 238 157" fill="none" xmlns="http://www.w3.org/2000/svg">
<path d="M-125.795 42.8312C-125.795 42.8312 -119.726 25.4457 -110.179 25.4457C-110.179 25.4457 -104.968 8.50502 -73.7506 15.0174C-73.7506 15.0174 -47.7286 -14.9624 -15.6376 9.79602C16.4533 34.5688 13.4188 83.6696 13.4188 83.6696C13.4188 83.6696 55.0426 23.6957 115.317 75.8519C115.317 75.8519 172.557 58.4665 196.832 137.131C196.832 137.131 227.191 121.051 237.154 156.252H-180C-180 156.252 -174.79 75.8519 -129.702 67.6039C-129.702 67.6039 -133.481 56.0997 -125.795 42.8312Z" fill="url(#paint0_linear_61_89)"/>
<defs>
<linearGradient id="paint0_linear_61_89" x1="28.5769" y1="54.0857" x2="28.5769" y2="318.081" gradientUnits="userSpaceOnUse">
<stop offset="0.095" stop-color="white"/>
<stop offset="0.74" stop-color="white" stop-opacity="0"/>
</linearGradient>
</defs>
</svg>
