<svg width="1000" height="586" viewBox="0 0 1000 586" fill="none" xmlns="http://www.w3.org/2000/svg">
<path d="M999.73 145.598C999.73 145.598 980.38 144.728 976.44 156.098C976.44 156.098 973.82 141.658 963.75 141.658C963.75 141.658 972.94 123.288 947.56 118.478C947.56 118.478 951.5 107.978 941 99.6678C941 99.6678 964.62 70.7978 945.81 45.8678C927 20.9378 911.69 30.9978 911.69 30.9978C911.69 30.9978 891.13 11.7478 867.07 25.3078C867.07 25.3078 847.39 -6.62216 810.2 1.24784C773.02 9.11784 754.65 27.4978 754.21 47.1778C754.21 47.1778 735.84 63.7978 750.27 90.9178C750.27 90.9178 728.4 93.1078 728.84 113.228C728.84 113.228 703.91 124.168 703.91 144.728C703.91 165.288 692.11 183.728 721.11 197.858C721.11 197.858 690.5 208.138 706.01 237.218C706.01 237.218 687.01 236.058 687.4 253.118C687.4 253.118 664.53 239.938 649.02 253.118C649.02 253.118 624.59 265.908 628.47 283.358C628.47 283.358 592.41 310.498 614.9 342.288C637.39 374.078 664.91 365.158 664.91 365.158C664.91 365.158 661.03 373.688 670.73 382.608C670.73 382.608 632.46 402.258 648.11 436.608C648.11 436.608 635.5 447.918 642.89 464.878C642.89 464.878 628.97 471.398 631.58 481.838C631.58 481.838 616.36 487.488 621.14 502.278C621.14 502.278 585.48 464.008 545.04 493.578C545.04 493.578 542 478.788 530.69 479.228C530.69 479.228 540.69 451.828 513.73 454.438C513.73 454.438 515.9 439.648 507.64 438.348C507.64 438.348 521.963 412.96 489.608 401.022C489.608 401.022 415.842 380.428 406.991 430.108C406.991 430.108 381.91 409.874 359.78 438.348C359.78 438.348 350.191 430.108 344.08 441.728C344.08 441.728 318.471 430.328 307.8 454.198C307.8 454.198 293.06 456.748 293.06 466.958C293.06 466.958 287.67 464.978 284.84 466.958C284.84 466.958 287.96 451.648 270.95 447.118C270.95 447.118 250.32 410.788 215.14 416.398C215.14 416.398 218.14 377.918 169.3 380.428C120.46 382.928 140.5 417.998 140.5 417.998C140.5 417.998 121.07 418.328 122.03 430.328C122.03 430.328 83.62 436.138 113.34 469.518C113.34 469.518 106.27 468.548 106.27 472.928C106.27 472.928 -3.75 479.958 30.71 567.468C30.71 567.468 1.18 559.308 0 585.238H999.71V145.598H999.73Z" fill="url(#paint0_linear_201_1166)" fill-opacity="0.8"/>
<defs>
<linearGradient id="paint0_linear_201_1166" x1="499.865" y1="420.942" x2="499.865" y2="585.238" gradientUnits="userSpaceOnUse">
<stop offset="0.138192" stop-color="#FFFEFD"/>
<stop offset="1" stop-color="white" stop-opacity="0"/>
</linearGradient>
</defs>
</svg>
