<svg width="540" height="370" viewBox="0 0 540 370" fill="none" xmlns="http://www.w3.org/2000/svg">
<path d="M539.117 -7.8752e-05C539.117 -7.8752e-05 498.464 4.938 497.642 38.6441C497.642 38.6441 459.089 25.1118 468.897 64.9556C468.897 64.9556 399.039 54.1681 410.596 129.088C410.596 129.088 355.167 143.771 381.028 220.841C381.028 220.841 373.643 197.822 335.045 202.748C335.045 202.748 331.171 168.569 275.066 149.198C214.048 142.418 192.74 189.877 192.74 189.877C192.74 189.877 147.218 164.695 134.627 220.841C134.627 220.841 50.364 220.841 56.1753 293.511C56.1753 293.511 7.62939e-06 295.448 0 369.657H539.104V67.9106L539.117 -7.8752e-05Z" fill="url(#paint0_linear_201_1170)" fill-opacity="0.8"/>
<defs>
<linearGradient id="paint0_linear_201_1170" x1="278.673" y1="-159.738" x2="269.558" y2="422.598" gradientUnits="userSpaceOnUse">
<stop offset="0.69" stop-color="white"/>
<stop offset="1" stop-color="white" stop-opacity="0"/>
</linearGradient>
</defs>
</svg>
