<svg width="334" height="40" viewBox="0 0 334 40" fill="none" xmlns="http://www.w3.org/2000/svg">
<path d="M257.356 21.4914C257.356 21.4914 225.124 -26.8643 200.016 21.4914C200.016 21.4914 183.53 19.2375 175.649 25.6209C175.649 25.6209 155.79 5.76163 138.547 6.50241C121.304 7.25895 103.32 23.7453 103.32 23.7453C103.32 23.7453 63.2236 20.7506 56.4778 25.6209C56.4778 25.6209 32.8673 19.2533 12.6298 25.6209C-7.60768 31.9884 -6.11036 35.7396 36.2403 36.1179C78.5909 36.4962 175.286 43.6203 170.794 36.1179C170.794 36.1179 354.445 38.3718 331.954 27.1182C309.462 15.8646 291.479 24.8643 291.479 24.8643C291.479 24.8643 277.231 14.7456 257.371 21.4914H257.356Z" fill="#F9FDFE"/>
</svg>
