<svg width="387" height="46" viewBox="0 0 387 46" fill="none" xmlns="http://www.w3.org/2000/svg">
<path d="M298.147 24.8979C298.147 24.8979 260.807 -31.1223 231.719 24.8979C231.719 24.8979 212.62 22.2868 203.49 29.6819C203.49 29.6819 180.483 6.67487 160.507 7.53307C140.531 8.40952 119.697 27.509 119.697 27.509C119.697 27.509 73.2448 24.0397 65.4297 29.6819C65.4297 29.6819 38.0769 22.305 14.6317 29.6819C-8.81352 37.0587 -7.07887 41.4045 41.9845 41.8427C91.0478 42.2809 203.07 50.5342 197.866 41.8427C197.866 41.8427 410.626 44.4538 384.57 31.4165C358.513 18.3792 337.679 28.8054 337.679 28.8054C337.679 28.8054 321.173 17.0828 298.166 24.8979H298.147Z" fill="#F9FDFE"/>
</svg>
