<svg width="213" height="22" viewBox="0 0 213 22" fill="none" xmlns="http://www.w3.org/2000/svg">
<path d="M9.27466 2.27567C9.27466 2.27567 -16.5589 13.5538 18.0038 17.1952C52.5664 20.8367 46.3759 20.1084 64.937 19.3801C83.4876 18.6518 124.969 20.2021 133.334 19.9732C141.699 19.7443 128.954 17.9131 128.954 17.9131C128.954 17.9131 153.643 17.9443 164.057 19.994C174.472 22.0436 224.87 21.3361 209.492 18.0172C194.115 14.6982 174.004 4.76227 160.749 9.73546C160.749 9.73546 129.755 0.506963 108.686 8.78868C108.686 8.78868 92.1231 -4.22693 78.8681 4.53338C78.8681 4.53338 63.0122 -3.28015 48.3423 5.94834C48.3423 5.94834 27.0034 -4.47663 9.27466 2.27567Z" fill="white"/>
</svg>
