<svg width="228" height="10" viewBox="0 0 228 10" fill="none" xmlns="http://www.w3.org/2000/svg">
<path d="M224.141 0.927979L226.205 0.927979L224.537 3.26798C224.417 3.44798 224.285 3.61598 224.153 3.80798C224.249 3.75998 224.585 3.67598 224.861 3.67598C226.217 3.67598 227.681 4.71998 227.681 6.67598C227.681 8.59598 226.193 9.97598 224.369 9.97598C223.277 9.97598 222.317 9.55598 221.753 8.82398C221.213 8.21198 221.009 7.34798 221.009 6.67598C221.009 5.73998 221.393 4.98398 221.813 4.33598L224.141 0.927979ZM222.773 6.81998L222.773 6.83198C222.773 7.77998 223.493 8.40398 224.309 8.40398C225.197 8.40398 225.893 7.71998 225.893 6.83198C225.893 5.94398 225.221 5.24798 224.321 5.24798C223.529 5.24798 222.773 5.84798 222.773 6.81998Z" fill="white"/>
<path d="M216.958 9.80798L216.958 2.43998L215.374 2.43998L215.374 0.927979L218.746 0.927979L218.746 9.80798L216.958 9.80798Z" fill="white"/>
<path d="M208.365 5.60791L211.689 5.60791L211.689 7.15591L208.365 7.15591L208.365 5.60791Z" fill="white"/>
<path d="M200.201 0.927979L204.881 0.927979L204.881 2.43998L201.581 2.43998L201.269 4.19198C201.533 4.02398 201.881 3.81998 202.649 3.81998C204.653 3.81998 205.613 5.48798 205.613 6.79598C205.613 8.24798 204.497 9.97598 202.313 9.97598C200.597 9.97598 199.277 8.90798 199.037 7.37198L200.837 7.37198C201.029 7.98398 201.629 8.40398 202.265 8.40398C203.105 8.40398 203.825 7.69598 203.825 6.84398C203.825 6.02798 203.201 5.28398 202.253 5.28398C201.833 5.28398 201.269 5.42798 200.873 6.12398L199.421 5.76398L200.201 0.927979Z" fill="white"/>
<path d="M194.974 9.80798L194.974 2.43998L193.39 2.43998L193.39 0.927979L196.762 0.927979L196.762 9.80798L194.974 9.80798Z" fill="white"/>
<path d="M190.345 8.03198L190.345 9.80798L188.701 9.80798L188.701 8.03198L190.345 8.03198Z" fill="white"/>
<path d="M183.93 9.80798L183.93 2.43998L182.346 2.43998L182.346 0.927979L185.718 0.927979L185.718 9.80798L183.93 9.80798Z" fill="white"/>
<path d="M177.311 9.80798L177.311 2.43998L175.727 2.43998L175.727 0.927979L179.099 0.927979L179.099 9.80798L177.311 9.80798Z" fill="white"/>
<path d="M172.682 8.03198L172.682 9.80798L171.038 9.80798L171.038 8.03198L172.682 8.03198Z" fill="white"/>
<path d="M167.66 9.80798L167.66 8.19998L163.556 8.19998L163.556 6.89198L167.672 0.927979L169.376 0.927979L169.376 6.79598L170.336 6.79598L170.336 8.19998L169.376 8.19998L169.376 9.80798L167.66 9.80798ZM165.368 6.79598L167.768 6.79598L167.768 3.09998L165.368 6.79598Z" fill="white"/>
<path d="M157.429 9.80801L157.429 8.40401C158.293 7.62401 159.157 6.85601 160.021 6.07601C160.909 5.29601 161.617 4.68401 161.629 3.66401C161.629 2.78801 161.077 2.33201 160.345 2.33201C159.481 2.33201 159.121 3.11201 159.109 4.02401L157.393 4.02401C157.417 3.34001 157.525 2.60801 158.017 1.94801C158.713 0.952009 159.865 0.76001 160.501 0.76001C162.361 0.76001 163.417 2.04401 163.417 3.50801C163.405 4.54001 163.033 5.27201 161.989 6.26801C161.293 6.94001 160.585 7.61201 159.877 8.29601L163.465 8.29601L163.465 9.80801L157.429 9.80801Z" fill="white"/>
<path d="M150.594 6.73601L150.594 4.02401C150.594 1.45601 152.694 0.76001 153.798 0.76001C155.046 0.76001 156.978 1.60001 156.978 4.00001L156.978 6.73601C156.978 9.16001 155.058 9.97601 153.822 9.97601C152.574 9.97601 150.594 9.16001 150.594 6.73601ZM152.382 3.96401L152.382 6.78401C152.382 7.58801 152.814 8.40401 153.786 8.40401C154.782 8.40401 155.19 7.46801 155.19 6.78401L155.19 3.95201C155.19 3.44801 154.998 2.33201 153.774 2.33201C152.778 2.33201 152.382 3.18401 152.382 3.96401Z" fill="white"/>
<path d="M144.191 9.80801L144.191 8.40401C145.055 7.62401 145.919 6.85601 146.783 6.07601C147.671 5.29601 148.379 4.68401 148.391 3.66401C148.391 2.78801 147.839 2.33201 147.107 2.33201C146.243 2.33201 145.883 3.11201 145.871 4.02401L144.155 4.02401C144.179 3.34001 144.287 2.60801 144.779 1.94801C145.475 0.952009 146.627 0.76001 147.263 0.76001C149.123 0.76001 150.179 2.04401 150.179 3.50801C150.167 4.54001 149.795 5.27201 148.751 6.26801C148.055 6.94001 147.347 7.61201 146.639 8.29601L150.227 8.29601L150.227 9.80801L144.191 9.80801Z" fill="white"/>
<path d="M125.507 0.927979L129.587 7.08398L129.551 0.927979L131.267 0.927979L131.267 9.80798L129.683 9.80798L125.591 3.66398L125.627 9.80798L123.911 9.80798L123.911 0.927979L125.507 0.927979Z" fill="white"/>
<path d="M113.908 5.45201L113.908 5.44001C113.908 2.59601 116.092 0.76001 118.564 0.76001C121.252 0.76001 123.232 2.84801 123.232 5.36801C123.232 7.88801 121.264 9.97601 118.552 9.97601C115.828 9.97601 113.908 7.82801 113.908 5.45201ZM115.696 5.35601L115.696 5.36801C115.696 6.98801 116.86 8.40401 118.588 8.40401C120.388 8.40401 121.444 6.84401 121.444 5.38001C121.444 3.89201 120.388 2.33201 118.576 2.33201C116.8 2.33201 115.696 3.79601 115.696 5.35601Z" fill="white"/>
<path d="M108.032 9.80798L106.244 9.80798L106.244 0.927979L108.032 0.927979L108.032 4.49198L111.452 4.49198L111.452 0.927979L113.24 0.927979L113.24 9.80798L111.452 9.80798L111.452 6.06398L108.032 6.06398L108.032 9.80798Z" fill="white"/>
<path d="M102.208 9.80798L102.208 2.49998L100.288 2.49998L100.288 0.927979L105.904 0.927979L105.904 2.49998L103.996 2.49998L103.996 9.80798L102.208 9.80798Z" fill="white"/>
<path d="M100.029 3.65201L98.0134 3.65201C97.8334 3.37601 97.6174 3.12401 97.3534 2.92001C96.8974 2.56001 96.3334 2.33201 95.6494 2.33201C94.2214 2.33201 92.7694 3.41201 92.7694 5.34401C92.7694 7.34801 94.2334 8.40401 95.6494 8.40401C96.3574 8.40401 96.9574 8.20001 97.4134 7.86401C97.8814 7.52801 98.1934 7.04801 98.3254 6.52001L95.0134 6.52001L95.0134 5.08001L100.389 5.08001C100.413 5.66801 100.329 6.56801 99.9934 7.31201C99.1654 9.16001 97.2574 9.97601 95.6614 9.97601C93.0094 9.97601 90.9814 7.92401 90.9814 5.34401C90.9814 2.69201 93.0934 0.76001 95.6854 0.76001C97.6894 0.76001 99.4534 2.03201 100.029 3.65201Z" fill="white"/>
<path d="M84.5266 0.927979L88.6066 7.08398L88.5706 0.927979L90.2866 0.927979L90.2866 9.80798L88.7026 9.80798L84.6106 3.66398L84.6466 9.80798L82.9306 9.80798L82.9306 0.927979L84.5266 0.927979Z" fill="white"/>
<path d="M77.1321 9.80798L77.1321 0.927979L82.1121 0.927979L82.1121 2.49998L78.9201 2.49998L78.9201 4.51598L82.0521 4.51598L82.0521 6.08798L78.9201 6.08798L78.9201 8.23598L82.1121 8.23598L82.1121 9.80798L77.1321 9.80798Z" fill="white"/>
<path d="M72.1197 9.80798L72.1197 0.927979L73.9077 0.927979L73.9077 8.23598L76.8237 8.23598L76.8237 9.80798L72.1197 9.80798Z" fill="white"/>
<path d="M67.0713 9.80798L67.0713 0.927979L68.8593 0.927979L68.8593 8.23598L71.7753 8.23598L71.7753 9.80798L67.0713 9.80798Z" fill="white"/>
<path d="M60.5885 8.06798L59.9525 9.80798L58.0085 9.80798L61.6085 0.927979L63.1805 0.927979L66.6965 9.80798L64.7405 9.80798L64.0925 8.06798L60.5885 8.06798ZM63.6125 6.63998L62.3165 3.03998L61.0565 6.63998L63.6125 6.63998Z" fill="white"/>
<path d="M52.4803 9.80798L50.6923 9.80798L50.6923 0.927979L52.4803 0.927979L52.4803 4.49198L55.9003 4.49198L55.9003 0.927979L57.6883 0.927979L57.6883 9.80798L55.9003 9.80798L55.9003 6.06398L52.4803 6.06398L52.4803 9.80798Z" fill="white"/>
<path d="M48.1806 6.83201L50.0646 6.83201C49.5246 8.66801 47.7966 9.97601 45.7206 9.97601C43.0086 9.97601 41.0646 7.82801 41.0646 5.35601C41.0646 2.99201 42.9006 0.76001 45.7086 0.76001C48.2646 0.77201 49.7166 2.65601 50.0646 3.95201L48.1806 3.95201C47.9046 3.34001 47.1126 2.34401 45.6966 2.33201C43.9686 2.33201 42.8526 3.78401 42.8526 5.35601C42.8526 6.97601 44.0166 8.40401 45.7086 8.40401C47.2926 8.40401 48.0126 7.15601 48.1806 6.83201Z" fill="white"/>
<path d="M31.5883 0.927979L35.6683 7.08398L35.6323 0.927979L37.3483 0.927979L37.3483 9.80798L35.7643 9.80798L31.6723 3.66398L31.7083 9.80798L29.9923 9.80798L29.9923 0.927979L31.5883 0.927979Z" fill="white"/>
<path d="M19.9893 5.45201L19.9893 5.44001C19.9893 2.59601 22.1733 0.76001 24.6453 0.76001C27.3333 0.76001 29.3133 2.84801 29.3133 5.36801C29.3133 7.88801 27.3453 9.97601 24.6333 9.97601C21.9093 9.97601 19.9893 7.82801 19.9893 5.45201ZM21.7773 5.35601L21.7773 5.36801C21.7773 6.98801 22.9413 8.40401 24.6693 8.40401C26.4693 8.40401 27.5253 6.84401 27.5253 5.38001C27.5253 3.89201 26.4693 2.33201 24.6573 2.33201C22.8813 2.33201 21.7773 3.79601 21.7773 5.35601Z" fill="white"/>
<path d="M17.5283 9.80798L17.5283 0.927979L19.3163 0.927979L19.3163 9.80798L17.5283 9.80798Z" fill="white"/>
<path d="M10.9451 7.04801L12.7211 7.04801C12.7811 8.24801 13.5851 8.47601 13.9691 8.47601C14.6531 8.47601 15.1811 7.92401 15.1811 7.30001C15.1811 6.54401 14.5451 6.35201 13.3091 5.86001C12.6371 5.62001 11.0891 5.06801 11.0891 3.38801C11.0891 1.68401 12.5891 0.76001 14.0291 0.76001C15.2051 0.76001 16.7651 1.38401 16.8371 3.35201L15.0731 3.35201C15.0011 2.94401 14.8451 2.26001 13.9691 2.26001C13.3811 2.26001 12.8771 2.66801 12.8771 3.26801C12.8651 3.92801 13.3451 4.09601 14.8451 4.72001C16.2011 5.30801 16.9571 5.95601 16.9571 7.21601C16.9571 8.64401 16.0811 9.97601 13.9931 9.97601C11.9771 9.97601 10.9331 8.76401 10.9451 7.04801Z" fill="white"/>
<path d="M8.56812 9.80798L8.56812 0.927979L10.3561 0.927979L10.3561 9.80798L8.56812 9.80798Z" fill="white"/>
<path d="M3.168 9.80798L0 0.927979L1.848 0.927979L4.068 7.67198L6.312 0.927979L8.16 0.927979L4.98 9.80798L3.168 9.80798Z" fill="white"/>
</svg>
