<svg width="361" height="110" viewBox="0 0 361 110" fill="none" xmlns="http://www.w3.org/2000/svg">
<path d="M48.5299 71.5385L72.7091 1.41699L52.4036 1.41699L36.6799 53.9474L21.0603 1.41699L0.859009 1.41699L26.2668 75.4251C31.4109 72.3279 38.7625 70 48.5299 71.5587L48.5299 71.5385Z" fill="white"/>
<path d="M100.824 61.0729L100.824 1.41699L81.1437 1.41699L81.1437 64.251C86.6834 62.166 93.3061 60.749 100.824 61.0729Z" fill="white"/>
<path d="M164.761 51.3968C164.094 43.8462 159.908 37.9757 146.85 32.2875C133.001 26.2146 130.918 25.3036 130.918 21.8624C130.918 18.4211 134.25 15.9919 137.687 15.9919C143.726 15.9919 144.351 20.749 144.767 23.2794L164.24 23.2794C163.927 5.26316 148.933 2.35483e-08 138.311 1.70953e-08C125.399 9.25062e-09 111.342 7.99595 111.342 23.0769C111.342 37.1458 124.774 42.4089 130.189 44.5344C142.06 49.3927 145.288 50.6073 145.288 54.5547C145.288 57.996 142.477 61.7409 137.791 61.7409C135.292 61.7409 129.773 60.2227 129.773 51.5182L110.196 51.5182C110.05 55.5668 110.592 59.3725 111.841 62.7733C118.11 64.413 124.795 67.3077 131.855 72.0041C131.855 72.0041 144.33 57.9757 164.74 51.3968L164.761 51.3968Z" fill="white"/>
<path d="M193.709 48.5627L193.709 1.41699L174.028 1.41699L174.028 49.0891C180.088 48.0162 186.69 47.7125 193.709 48.5627Z" fill="white"/>
<path d="M238.172 59.8583C229.092 56.8623 223.802 48.0567 223.802 38.7652L223.802 38.664C223.802 28.1377 231.196 16.8016 244.837 16.8016C258.478 16.8016 265.767 29.251 265.767 38.9676C265.767 43.3198 264.372 48.2186 261.56 52.2874C267.912 51.5789 274.93 51.9433 282.199 54.2308C284.302 49.4737 285.448 44.2713 285.448 38.8664C285.448 18.0162 268.474 3.90971e-08 244.733 2.46729e-08C223.49 1.17671e-08 204.122 15.1822 204.122 39.6761L204.122 39.7773C204.122 43.664 204.809 47.5304 206.079 51.2348C214.118 53.7247 222.615 57.8543 231.466 64.1093C231.466 64.1093 233.924 62.1862 238.172 59.8583Z" fill="white"/>
<path d="M360.838 1.41699L341.99 1.41699L342.407 47.0648L312.834 1.41699L295.861 1.41699L295.861 60.8097C300.276 63.7449 304.712 67.4899 309.085 72.3077C309.085 72.3077 311.209 71.7814 314.667 71.2551L314.292 31.1943L340.449 71.2753C345.468 72.1862 350.529 73.7652 355.132 76.3563L360.838 76.3563L360.838 1.41699Z" fill="white"/>
<path d="M16.7494 84.4333C26.2461 67.6519 47.2596 66.0123 63.7956 73.3807L60.3176 74.0487C80.394 52.6924 111.071 51.6398 134.938 67.6114L127.711 68.5224C141.081 54.0892 159.387 44.2106 179.485 42.3483C199.436 40.3442 219.387 47.9961 234.903 59.5143L227.78 59.6965C231.133 57.2673 234.445 55.4455 238.131 53.7046C264.726 40.7491 293.299 47.7127 311.064 70.6074L308.44 69.8179C326.246 66.7612 347.155 67.5507 360.859 80.2835C345.948 69.4738 325.413 70.6479 308.356 75.1621C298.464 65.3038 286.01 57.49 271.682 56.741C257.208 56.073 242.525 61.8827 231.841 71.2754L228.03 68.7248C195.5 45.9718 159.367 50.5062 132.584 79.0285C110.987 62.5912 86.3294 59.7977 64.7327 77.9353L62.9625 79.494L61.2548 78.6033C46.6348 70.3847 27.808 70.3038 16.7702 84.4535L16.7494 84.4333Z" fill="white"/>
<path d="M44.573 102.549C43.261 106.881 39.0541 109.978 34.0142 109.978C27.4123 109.978 22.6848 104.897 22.6848 99.0672C22.6848 93.2373 27.1416 88.217 33.9726 88.217C40.1787 88.2373 43.7192 92.6907 44.5522 95.7676L39.9705 95.7676C39.304 94.3304 37.3672 91.962 33.9309 91.9417C29.724 91.9417 27.0166 95.3628 27.0166 99.0875C27.0166 102.812 29.849 106.294 33.9517 106.294C37.8046 106.294 39.554 103.338 39.9705 102.59L44.5522 102.59L44.573 102.549Z" fill="white"/>
<path d="M53.3824 109.595L53.3824 88.603L57.7351 88.603L57.7351 97.0241L66.0447 97.0241L66.0447 88.603L70.3974 88.603L70.3974 109.595L66.0447 109.595L66.0447 100.749L57.7351 100.749L57.7351 109.595L53.3824 109.595Z" fill="white"/>
<path d="M83.1638 109.595L78.4363 109.595L87.1832 88.603L90.9944 88.603L99.5331 109.595L94.7848 109.595L93.202 105.486L84.6841 105.486L83.143 109.595L83.1638 109.595ZM88.9118 93.603L85.8504 102.105L92.0566 102.105L88.9118 93.603Z" fill="white"/>
<path d="M107.759 88.603L112.112 88.603L112.112 105.87L119.193 105.87L119.193 109.575L107.759 109.575L107.759 88.5828L107.759 88.603Z" fill="white"/>
<path d="M127.315 88.603L131.668 88.603L131.668 105.87L138.749 105.87L138.749 109.575L127.315 109.575L127.315 88.5828L127.315 88.603Z" fill="white"/>
<path d="M146.788 88.6032L158.888 88.6032L158.888 92.3077L151.119 92.3077L151.119 97.0648L158.742 97.0648L158.742 100.769L151.119 100.769L151.119 105.85L158.888 105.85L158.888 109.555L146.788 109.555L146.788 88.5627L146.788 88.6032Z" fill="white"/>
<path d="M181.963 103.158L181.88 88.603L186.045 88.603L186.045 109.595L182.192 109.595L172.237 95.0808L172.32 109.595L168.155 109.595L168.155 88.603L172.029 88.603L181.942 103.158L181.963 103.158Z" fill="white"/>
<path d="M212.119 95.0404C211.682 94.3926 211.161 93.7853 210.515 93.3197C209.412 92.4695 208.037 91.9229 206.371 91.9229C202.893 91.9229 199.373 94.4735 199.373 99.0484C199.373 103.623 202.935 106.275 206.371 106.275C208.1 106.275 209.557 105.789 210.661 105C211.807 104.21 212.556 103.077 212.869 101.822L204.809 101.822L204.809 98.4209L217.888 98.4209C217.95 99.8177 217.742 101.943 216.93 103.684C214.91 108.057 210.286 109.98 206.392 109.98C199.936 109.98 195.021 105.121 195.021 99.0282C195.021 92.9351 200.165 88.1982 206.454 88.1982C211.328 88.1982 215.618 91.1942 217.013 95.0404L212.119 95.0404Z" fill="white"/>
<path d="M226.697 88.6032L238.797 88.6032L238.797 92.3077L231.029 92.3077L231.029 97.0648L238.652 97.0648L238.652 100.769L231.029 100.769L231.029 105.85L238.797 105.85L238.797 109.555L226.697 109.555L226.697 88.5627L226.697 88.6032Z" fill="white"/>
<path d="M250.96 92.3277L246.295 92.3277L246.295 88.6233L259.956 88.6233L259.956 92.3277L255.312 92.3277L255.312 109.595L250.96 109.595L250.96 92.3277Z" fill="white"/>
<path d="M268.058 109.595L268.058 88.603L272.411 88.603L272.411 97.0241L280.72 97.0241L280.72 88.603L285.073 88.603L285.073 109.595L280.72 109.595L280.72 100.749L272.411 100.749L272.411 109.595L268.058 109.595Z" fill="white"/>
<path d="M293.966 99.2711C293.966 92.5505 299.276 88.2185 305.274 88.2185C311.814 88.2185 316.624 93.1578 316.624 99.1092C316.624 105.061 311.834 110 305.253 110C298.672 110 293.966 104.919 293.966 99.3116L293.966 99.2711ZM298.318 99.0889C298.318 102.915 301.151 106.255 305.357 106.255C309.564 106.255 312.293 102.571 312.293 99.1092C312.293 95.6477 309.731 91.9027 305.316 91.9027C300.901 91.9027 298.318 95.3643 298.318 99.0485L298.318 99.0889Z" fill="white"/>
<path d="M339.366 103.158L339.283 88.603L343.448 88.603L343.448 109.595L339.595 109.595L329.641 95.0808L329.724 109.595L325.559 109.595L325.559 88.603L329.432 88.603L339.346 103.158L339.366 103.158Z" fill="white"/>
</svg>
