<svg width="220" height="449" viewBox="0 0 220 449" fill="none" xmlns="http://www.w3.org/2000/svg">
<path d="M92.7729 70L95.4458 76.3271L101.773 79L95.4458 81.6729L92.7729 88L90.1001 81.6729L83.7729 79L90.1001 76.3271L92.7729 70Z" fill="white" fill-opacity="0.8"/>
<circle cx="92.8125" cy="32" r="2" fill="white"/>
<circle cx="110.109" cy="59" r="3" fill="white"/>
<circle cx="41.4995" cy="1" r="1" fill="white"/>
<path d="M63 160.192L64.4849 163.707L68 165.192L64.4849 166.677L63 170.192L61.5151 166.677L58 165.192L61.5151 163.707L63 160.192Z" fill="white"/>
<path d="M6 90.1921L7.78191 94.4102L12 96.1921L7.78191 97.974L6 102.192L4.21809 97.974L0 96.1921L4.21809 94.4102L6 90.1921Z" fill="white"/>
<circle cx="13.9185" cy="116.192" r="2" fill="white"/>
<circle cx="15" cy="251.192" r="1" fill="white"/>
<path d="M211 430.192L213.673 436.519L220 439.192L213.673 441.865L211 448.192L208.327 441.865L202 439.192L208.327 436.519L211 430.192Z" fill="white" fill-opacity="0.8"/>
</svg>
