<svg width="585" height="517" viewBox="0 0 585 517" fill="none" xmlns="http://www.w3.org/2000/svg">
<g opacity="0.6" clip-path="url(#clip0_201_864)">
<path style="mix-blend-mode:screen" d="M243.548 388.44C238.833 441.76 191.709 481.177 138.301 476.468C84.893 471.759 45.4093 424.722 50.1249 371.392C54.8405 318.073 101.964 278.656 155.372 283.365C208.78 288.074 248.264 335.111 243.548 388.431L243.548 388.44Z" fill="url(#paint0_radial_201_864)" fill-opacity="0.2"/>
<path style="mix-blend-mode:screen" d="M488.894 213.397C483.728 271.833 432.104 315.018 373.571 309.859C315.039 304.699 271.78 253.159 276.957 194.724C282.113 136.298 333.747 93.1026 392.28 98.272C450.802 103.431 494.06 154.981 488.894 213.407L488.894 213.397Z" fill="url(#paint1_radial_201_864)"/>
<path style="mix-blend-mode:screen" opacity="0.69" d="M367.448 204.467C305.88 195.886 256.206 187.174 256.514 184.995C256.821 182.826 306.972 188.016 368.56 196.587C430.127 205.168 510.56 218.763 510.263 220.942C509.946 223.111 429.015 213.038 367.448 204.457L367.448 204.467Z" fill="url(#paint2_radial_201_864)"/>
<path style="mix-blend-mode:screen" opacity="0.69" d="M375.758 211.925C336.786 230.512 304.214 243.583 303.037 241.123C301.86 238.653 332.499 221.582 371.491 202.996C410.473 184.409 462.859 162.695 464.046 165.155C465.213 167.625 414.73 193.339 375.748 211.925L375.758 211.925Z" fill="url(#paint3_radial_201_864)"/>
<path style="mix-blend-mode:screen" opacity="0.69" d="M380.575 218.26C348.194 265.327 319.521 301.857 316.545 299.801C313.559 297.755 337.38 257.928 369.76 210.831C402.131 163.743 447.813 104.204 450.809 106.24C453.795 108.307 412.955 171.162 380.575 218.26Z" fill="url(#paint4_radial_201_864)"/>
<path style="mix-blend-mode:screen" opacity="0.69" d="M384.396 216.966C376.199 271.463 368.128 315.432 366.364 315.169C364.62 314.905 369.842 270.514 378.039 215.998C386.246 161.492 398.88 90.308 400.644 90.5614C402.397 90.8347 392.594 162.46 384.396 216.956L384.396 216.966Z" fill="url(#paint5_radial_201_864)"/>
<path style="mix-blend-mode:screen" opacity="0.69" d="M393.699 211.544C414.819 255.702 429.673 292.587 426.888 293.929C424.074 295.261 404.673 260.549 383.533 216.371C362.403 172.203 337.726 112.847 340.521 111.505C343.335 110.183 372.57 167.376 393.699 211.544Z" fill="url(#paint6_radial_201_864)"/>
<path style="mix-blend-mode:screen" opacity="0.69" d="M397.72 205.461C441.344 235.36 475.199 261.853 473.301 264.606C471.403 267.36 434.478 245.374 390.834 215.455C347.19 185.546 292.002 143.351 293.901 140.578C295.809 137.824 354.075 175.552 397.72 205.461Z" fill="url(#paint7_radial_201_864)"/>
<path style="mix-blend-mode:screen" opacity="0.69" d="M375.271 198.266C354.982 170.858 339.927 147.577 341.674 146.307C343.41 145.016 361.285 166.199 381.584 193.616C401.893 221.034 426.63 258.368 424.893 259.659C423.147 260.93 395.579 225.674 375.281 198.256L375.271 198.266Z" fill="url(#paint8_radial_201_864)"/>
<path style="mix-blend-mode:screen" opacity="0.69" d="M376.908 202.97C355.156 193.519 337.987 184.734 338.597 183.354C339.197 181.984 357.322 188.527 379.084 197.988C400.836 207.449 428.718 221.332 428.118 222.712C427.518 224.081 398.661 212.421 376.898 202.97L376.908 202.97Z" fill="url(#paint9_radial_201_864)"/>
<path style="mix-blend-mode:screen" opacity="0.69" d="M376.016 207.236C344.799 210.776 319.297 212.042 319.074 210.068C318.841 208.094 343.979 203.618 375.206 200.078C406.433 196.548 447.618 194.036 447.841 196.019C448.065 197.993 407.242 203.706 376.016 207.236Z" fill="url(#paint10_radial_201_864)"/>
<path style="mix-blend-mode:screen" opacity="0.69" d="M379.354 210.102C354.973 228.091 334.272 241.438 333.137 239.895C332.002 238.352 350.829 222.509 375.22 204.511C399.601 186.512 432.803 164.581 433.958 166.125C435.103 167.678 403.735 192.104 379.364 210.102L379.354 210.102Z" fill="url(#paint11_radial_201_864)"/>
<path style="mix-blend-mode:screen" opacity="0.69" d="M383.523 210.256C372.776 234.9 362.79 254.331 361.23 253.661C359.659 252.98 367.11 232.443 377.867 207.789C388.613 183.145 404.396 151.55 405.966 152.23C407.527 152.92 394.28 185.612 383.533 210.266L383.523 210.256Z" fill="url(#paint12_radial_201_864)"/>
<path style="mix-blend-mode:screen" opacity="0.69" d="M387.498 209.73C390.775 238.573 391.949 262.129 390.122 262.333C388.294 262.547 384.144 239.335 380.878 210.483C377.601 181.641 375.268 143.593 377.105 143.389C378.933 143.184 384.222 180.908 387.508 209.741L387.498 209.73Z" fill="url(#paint13_radial_201_864)"/>
<path style="mix-blend-mode:screen" opacity="0.69" d="M379.564 213.759C350.204 244.028 324.844 267.079 322.923 265.221C321.003 263.362 343.235 237.308 372.595 207.029C401.955 176.75 442.52 139.042 444.46 140.891C446.371 142.749 408.914 183.48 379.564 213.759Z" fill="url(#paint14_radial_201_864)"/>
<path style="mix-blend-mode:screen" opacity="0.69" d="M384.965 210.815C377.84 239.214 370.591 261.885 368.799 261.432C366.996 260.979 371.308 237.587 378.444 209.178C385.57 180.77 396.865 144.008 398.667 144.451C400.469 144.904 392.092 182.407 384.965 210.815Z" fill="url(#paint15_radial_201_864)"/>
<path style="mix-blend-mode:screen" opacity="0.69" d="M390.371 211.039C401.031 248.318 407.764 279.101 405.394 279.779C403.034 280.447 392.461 250.778 381.791 213.479C371.131 176.189 359.703 126.563 362.073 125.885C364.443 125.217 379.711 173.759 390.371 211.039Z" fill="url(#paint16_radial_201_864)"/>
<path style="mix-blend-mode:screen" opacity="0.69" d="M393.203 206.39C420.127 232.418 440.626 254.896 438.966 256.596C437.326 258.296 414.141 238.584 387.206 212.557C360.281 186.539 326.723 150.567 328.383 148.857C330.034 147.157 366.258 180.373 393.203 206.39Z" fill="url(#paint17_radial_201_864)"/>
<path style="mix-blend-mode:screen" opacity="0.69" d="M392.526 201.275C424.805 209.357 450.569 217.556 450.053 219.594C449.548 221.632 422.949 216.753 390.66 208.67C358.371 200.588 316.572 187.796 317.078 185.758C317.603 183.72 360.227 193.202 392.516 201.275L392.526 201.275Z" fill="url(#paint18_radial_201_864)"/>
<path style="mix-blend-mode:screen" opacity="0.69" d="M391.078 196.552C425.629 186.704 454.164 180.493 454.784 182.669C455.405 184.856 427.899 194.621 393.338 204.469C358.787 214.317 312.777 224.877 312.157 222.691C311.546 220.505 356.527 206.4 391.088 196.552L391.078 196.552Z" fill="url(#paint19_radial_201_864)"/>
<path style="mix-blend-mode:screen" opacity="0.69" d="M364.597 198.059C295.005 166.593 239.255 139.603 240.078 137.787C240.901 135.961 298.003 159.984 367.604 191.45C437.196 222.915 527.583 266.155 526.75 267.991C525.897 269.816 434.179 229.524 364.587 198.059L364.597 198.059Z" fill="url(#paint20_radial_201_864)"/>
<path style="mix-blend-mode:screen" opacity="0.69" d="M370.794 210.122C317.963 215.328 274.861 216.839 274.539 213.489C274.217 210.15 316.765 203.216 369.606 198.01C422.446 192.804 492.082 189.588 492.423 192.927C492.735 196.276 423.624 204.906 370.804 210.112L370.794 210.122Z" fill="url(#paint21_radial_201_864)"/>
<path style="mix-blend-mode:screen" opacity="0.69" d="M371.284 216.062C314.152 256.941 266.811 288.687 265.558 286.934C264.306 285.19 309.594 250.619 366.747 209.71C423.889 168.821 500.166 117.082 501.429 118.825C502.672 120.588 428.417 175.163 371.294 216.052L371.284 216.062Z" fill="url(#paint22_radial_201_864)"/>
<path style="mix-blend-mode:screen" opacity="0.69" d="M379.406 219.625C351.416 281.311 327.317 330.707 325.598 329.916C323.878 329.135 345.153 278.49 373.154 216.775C401.134 155.079 439.7 75.0135 441.43 75.7946C443.15 76.5855 407.386 157.929 379.406 219.625Z" fill="url(#paint23_radial_201_864)"/>
<path style="mix-blend-mode:screen" opacity="0.69" d="M392.417 225.568C401.632 318.913 406.09 394.907 402.336 395.265C398.591 395.633 388.052 320.266 378.838 226.881C369.594 133.536 361.548 10.7076 365.292 10.3199C369.046 9.982 383.173 132.222 392.408 225.568L392.417 225.568Z" fill="url(#paint24_radial_201_864)"/>
<path style="mix-blend-mode:screen" opacity="0.69" d="M395.092 214.514C432.972 267.285 462.687 310.816 461.433 311.712C460.168 312.618 428.416 270.564 390.516 217.773C352.615 164.992 304.271 94.8043 305.536 93.8983C306.8 93.0022 357.191 161.732 395.092 214.514Z" fill="url(#paint25_radial_201_864)"/>
<path style="mix-blend-mode:screen" opacity="0.69" d="M375.953 194.138C363.979 153.989 356.338 120.818 358.889 120.062C361.439 119.306 373.21 151.235 385.184 191.394C397.157 231.553 410.11 285.027 407.56 285.783C404.999 286.529 387.926 234.286 375.953 194.128L375.953 194.138Z" fill="url(#paint26_radial_201_864)"/>
<path style="mix-blend-mode:screen" opacity="0.69" d="M375.873 200.243C354.696 180.239 338.555 162.925 339.823 161.591C341.081 160.256 359.285 175.386 380.472 195.4C401.659 215.404 428.062 243.091 426.783 244.445C425.505 245.779 397.04 220.257 375.863 200.253L375.873 200.243Z" fill="url(#paint27_radial_201_864)"/>
<path style="mix-blend-mode:screen" opacity="0.69" d="M373.052 204.802C335.502 195.849 305.507 186.67 306.075 184.294C306.643 181.918 337.558 187.24 375.118 196.193C412.688 205.145 461.328 219.437 460.76 221.813C460.182 224.199 410.612 213.744 373.042 204.792L373.052 204.802Z" fill="url(#paint28_radial_201_864)"/>
<path style="mix-blend-mode:screen" opacity="0.69" d="M375.707 209.514C339.993 220.119 310.486 226.901 309.816 224.644C309.146 222.388 337.546 211.942 373.27 201.327C408.984 190.712 456.548 179.237 457.228 181.494C457.888 183.76 411.422 198.899 375.707 209.514Z" fill="url(#paint29_radial_201_864)"/>
<path style="mix-blend-mode:screen" opacity="0.69" d="M380.471 211.436C357.727 235.424 338.063 253.721 336.538 252.274C335.013 250.837 352.212 230.21 374.976 206.212C397.72 182.214 429.192 152.3 430.717 153.737C432.241 155.184 403.225 187.428 380.481 211.426L380.471 211.436Z" fill="url(#paint30_radial_201_864)"/>
<path style="mix-blend-mode:screen" opacity="0.69" d="M385.281 212.491C376.996 247.175 368.479 274.886 366.278 274.36C364.088 273.834 369.02 245.278 377.315 210.573C385.61 175.879 398.857 130.946 401.068 131.462C403.268 131.998 393.586 177.777 385.291 212.481L385.281 212.491Z" fill="url(#paint31_radial_201_864)"/>
<path style="mix-blend-mode:screen" opacity="0.69" d="M374.415 213.827C327.817 236.555 288.866 252.592 287.413 249.651C285.98 246.701 322.576 225.874 369.205 203.137C415.813 180.399 478.486 153.779 479.939 156.719C481.371 159.669 421.024 191.089 374.415 213.817L374.415 213.827Z" fill="url(#paint32_radial_201_864)"/>
<path style="mix-blend-mode:screen" opacity="0.69" d="M381.897 212.683C361.759 242.529 343.891 265.691 342.006 264.42C340.121 263.15 354.903 237.921 375.051 208.065C395.179 178.218 423.632 140.442 425.527 141.722C427.422 143.003 402.035 182.846 381.907 212.683L381.897 212.683Z" fill="url(#paint33_radial_201_864)"/>
<path style="mix-blend-mode:screen" opacity="0.69" d="M386.098 215.058C382.807 262.582 378.562 301.025 376.618 300.889C374.683 300.764 375.777 262.106 379.078 214.562C382.38 167.028 388.794 104.827 390.729 104.953C392.673 105.108 389.4 167.523 386.098 215.068L386.098 215.058Z" fill="url(#paint34_radial_201_864)"/>
<path style="mix-blend-mode:screen" opacity="0.69" d="M393.265 211.002C413.48 252.314 427.744 286.854 425.13 288.128C422.505 289.401 403.984 256.948 383.759 215.626C363.534 174.304 339.863 118.741 342.478 117.457C345.112 116.194 373.039 169.691 393.265 211.002Z" fill="url(#paint35_radial_201_864)"/>
<path style="mix-blend-mode:screen" opacity="0.69" d="M394.632 204.818C428.557 227.636 454.89 247.871 453.436 250.011C451.992 252.15 423.305 235.412 389.381 212.584C355.456 189.777 312.519 157.543 313.963 155.393C315.427 153.244 360.707 182.011 394.632 204.818Z" fill="url(#paint36_radial_201_864)"/>
<path style="mix-blend-mode:screen" opacity="0.69" d="M394.941 198.745C438.994 201.794 474.563 206.527 474.361 209.304C474.169 212.082 438.293 211.888 394.23 208.839C350.167 205.79 292.597 198.786 292.78 195.998C292.982 193.211 350.878 195.696 394.941 198.745Z" fill="url(#paint37_radial_201_864)"/>
<path style="mix-blend-mode:soft-light" d="M448.505 216.105C455.691 180.406 432.529 145.624 396.761 138.439C361.002 131.275 326.163 154.387 318.988 190.087C311.792 225.806 334.954 260.568 370.723 267.743C406.481 274.927 441.31 251.815 448.505 216.095L448.505 216.105ZM333.43 193.004C339.025 165.27 366.079 147.293 393.839 152.888C421.619 158.464 439.617 185.464 434.033 213.198C428.439 240.922 401.394 258.899 373.604 253.314C345.834 247.738 327.836 220.738 333.42 193.004L333.43 193.004Z" fill="url(#paint38_radial_201_864)"/>
<path style="mix-blend-mode:screen" d="M94.7023 510.635C31.4826 497.917 -9.43995 436.476 3.25732 373.36C15.9646 310.245 77.5369 269.362 140.747 282.06C203.957 294.758 244.909 356.23 232.182 419.335C219.475 482.44 157.912 523.313 94.6924 510.635L94.7023 510.635Z" fill="url(#paint39_radial_201_864)" fill-opacity="0.2"/>
<path style="mix-blend-mode:soft-light" d="M264.821 296.55C261.255 295.834 258.949 292.378 259.677 288.818C260.384 285.268 263.855 282.976 267.411 283.682C270.967 284.408 273.273 287.854 272.565 291.414C271.848 294.974 268.387 297.266 264.831 296.55L264.821 296.55Z" fill="url(#paint40_radial_201_864)"/>
<path style="mix-blend-mode:soft-light" d="M252.57 307.466C247.231 306.397 243.772 301.209 244.853 295.879C245.914 290.549 251.12 287.095 256.459 288.175C261.788 289.254 265.248 294.432 264.176 299.772C263.095 305.092 257.899 308.535 252.57 307.476L252.57 307.466Z" fill="url(#paint41_radial_201_864)"/>
<path style="mix-blend-mode:screen" d="M319.075 267.3C311.306 265.743 306.28 258.182 307.839 250.435C309.399 242.669 316.973 237.641 324.742 239.199C332.502 240.766 337.548 248.317 335.988 256.074C334.418 263.83 326.855 268.858 319.085 267.301L319.075 267.3Z" fill="url(#paint42_radial_201_864)"/>
<path style="mix-blend-mode:screen" d="M311.747 246.005C321.648 247.988 328.054 257.613 326.068 267.487C324.071 277.371 314.431 283.777 304.54 281.784C294.64 279.791 288.233 270.166 290.229 260.292C292.226 250.407 301.856 244.012 311.757 246.015L311.747 246.005Z" fill="url(#paint43_radial_201_864)"/>
<path style="mix-blend-mode:screen" d="M311.822 101.151C306.811 105.084 334.817 153.94 374.414 210.271C413.992 266.602 450.12 309.079 455.141 305.136C460.152 301.203 432.136 252.347 392.559 196.026C352.981 139.696 316.823 97.2177 311.822 101.151Z" fill="url(#paint44_radial_201_864)"/>
<path style="mix-blend-mode:screen" d="M359.862 302.655C356.068 301.757 363.571 256.478 376.611 201.534C389.66 146.569 403.298 102.755 407.092 103.642C410.895 104.55 403.392 149.818 390.342 204.773C377.303 259.718 363.656 303.542 359.862 302.655Z" fill="url(#paint45_radial_201_864)"/>
<path style="mix-blend-mode:screen" d="M307.176 185.01C306.461 188.301 340.055 199.083 382.206 209.099C424.337 219.115 459.092 224.568 459.807 221.277C460.512 217.996 426.918 207.193 384.778 197.178C342.627 187.162 307.892 181.709 307.187 185L307.176 185.01Z" fill="url(#paint46_radial_201_864)"/>
<g style="mix-blend-mode:screen">
<path d="M537.428 216.244C537.077 220.126 467.881 217.2 382.869 209.713C297.847 202.225 229.211 192.999 229.542 189.117C229.893 185.236 299.089 188.161 384.101 195.649C469.124 203.146 537.769 212.362 537.428 216.254L537.428 216.244Z" fill="url(#paint47_radial_201_864)"/>
<path d="M510.18 47.8492C513.351 50.4249 459.192 121.837 389.224 207.344C319.266 292.851 259.972 360.078 256.811 357.492C253.649 354.917 307.799 283.504 377.767 197.997C447.735 112.491 507.018 45.2635 510.18 47.8492Z" fill="url(#paint48_radial_201_864)"/>
<path d="M522.268 287.775C519.771 291.829 455.614 257.011 378.986 210.009C302.328 163.008 242.215 121.629 244.713 117.576C247.21 113.522 311.367 148.34 388.005 195.332C464.643 242.323 524.775 283.722 522.268 287.766L522.268 287.775Z" fill="url(#paint49_radial_201_864)"/>
<path d="M462.293 167.253C463.822 170.642 429.778 189.239 386.259 208.804C342.729 228.36 306.216 241.478 304.688 238.099C303.169 234.72 337.202 216.123 380.732 196.558C424.251 176.992 460.774 163.884 462.293 167.253Z" fill="url(#paint50_radial_201_864)"/>
<path d="M342.828 309.12C338.243 307.369 352.741 258.303 375.201 199.51C397.64 140.728 419.568 94.491 424.153 96.2317C428.738 97.9724 414.24 147.049 391.791 205.831C369.341 264.614 347.423 310.86 342.838 309.12L342.828 309.12Z" fill="url(#paint51_radial_201_864)"/>
<path d="M439.855 283.268C437.106 285.188 409.642 250.66 378.508 206.141C347.385 161.623 324.376 123.994 327.125 122.074C329.865 120.164 357.339 154.692 388.462 199.2C419.596 243.709 442.605 281.348 439.855 283.268Z" fill="url(#paint52_radial_201_864)"/>
<path d="M430.064 206.781C427.789 232.46 405.096 251.439 379.384 249.167C353.662 246.895 334.642 224.249 336.917 198.57C339.192 172.891 361.884 153.912 387.606 156.184C413.328 158.446 432.329 181.112 430.074 206.781L430.064 206.781Z" fill="url(#paint53_radial_201_864)"/>
</g>
<path style="mix-blend-mode:screen" d="M293.139 323.067C290.006 358.49 258.704 384.67 223.222 381.551C187.739 378.423 161.506 347.172 164.639 311.738C167.761 276.314 199.073 250.125 234.556 253.254C270.038 256.382 296.272 287.643 293.139 323.067Z" fill="url(#paint54_radial_201_864)"/>
<path style="mix-blend-mode:screen" d="M261.049 367.527C256.664 417.094 212.865 453.729 163.216 449.36C113.556 444.99 76.849 401.243 81.2446 351.676C85.6202 302.108 129.419 265.463 179.078 269.843C228.728 274.222 265.445 317.96 261.049 367.527Z" fill="url(#paint55_radial_201_864)"/>
<path style="mix-blend-mode:screen" d="M536.651 120.876C534.914 140.564 517.515 155.103 497.805 153.369C478.085 151.634 463.52 134.263 465.258 114.586C467.005 94.8982 484.393 80.3585 504.104 82.0932C523.824 83.828 538.398 101.198 536.651 120.876Z" fill="url(#paint56_radial_201_864)"/>
<path style="mix-blend-mode:screen" d="M201.156 370.155C199.419 389.843 182.02 404.383 162.31 402.648C142.59 400.913 128.026 383.543 129.763 363.865C131.51 344.177 148.899 329.638 168.609 331.372C188.329 333.107 202.903 350.478 201.156 370.155Z" fill="url(#paint57_radial_201_864)"/>
<path style="mix-blend-mode:screen" d="M299.723 286.496C298.536 299.923 286.662 309.846 273.213 308.661C259.754 307.475 249.804 295.63 251.001 282.194C252.188 268.767 264.052 258.833 277.511 260.029C290.96 261.215 300.9 273.059 299.723 286.496Z" fill="url(#paint58_radial_201_864)"/>
<path style="mix-blend-mode:screen" d="M258.594 329.707C256.339 355.426 233.606 374.434 207.844 372.162C182.082 369.89 163.042 347.204 165.317 321.485C167.583 295.765 190.306 276.757 216.067 279.029C241.829 281.292 260.88 303.978 258.584 329.697L258.594 329.707Z" fill="url(#paint59_radial_201_864)"/>
<path style="mix-blend-mode:screen" d="M294.294 270.823C298.263 277.081 284.105 293.111 262.674 306.652C241.252 320.182 220.672 326.09 216.712 319.843C212.752 313.595 226.901 297.555 248.322 284.014C269.743 270.473 290.324 264.576 294.284 270.823L294.294 270.823Z" fill="url(#paint60_radial_201_864)"/>
<path style="mix-blend-mode:screen" d="M225.624 321.908C229.594 328.166 215.436 344.196 194.004 357.736C172.583 371.267 152.002 377.175 148.043 370.927C144.083 364.679 158.231 348.639 179.653 335.099C201.074 321.558 221.655 315.66 225.624 321.908Z" fill="url(#paint61_radial_201_864)"/>
<path style="mix-blend-mode:screen" d="M224.418 320.593C228.388 326.841 223.987 336.715 214.6 342.655C205.213 348.584 194.391 348.317 190.431 342.069C186.471 335.821 190.862 325.947 200.259 320.007C209.636 314.078 220.468 314.335 224.428 320.593L224.418 320.593Z" fill="url(#paint62_radial_201_864)"/>
<path style="mix-blend-mode:screen" d="M499.045 122.461C503.015 128.709 498.614 138.584 489.227 144.523C479.84 150.452 469.018 150.185 465.058 143.937C461.098 137.689 465.489 127.815 474.886 121.875C484.263 115.946 495.095 116.204 499.055 122.461L499.045 122.461Z" fill="url(#paint63_radial_201_864)"/>
<path style="mix-blend-mode:screen" d="M508.739 152.253C506.057 182.6 479.225 205.031 448.827 202.352C418.409 199.674 395.94 172.896 398.623 142.548C401.305 112.191 428.137 89.7599 458.534 92.4385C488.942 95.1171 511.421 121.895 508.729 152.253L508.739 152.253Z" fill="url(#paint64_radial_201_864)"/>
<path style="mix-blend-mode:screen" d="M377.968 262.612C374.67 299.927 341.68 327.507 304.304 324.213C266.927 320.92 239.31 287.994 242.598 250.679C245.896 213.365 278.876 185.775 316.262 189.078C353.629 192.371 381.266 225.297 377.968 262.612Z" fill="url(#paint65_radial_201_864)"/>
<path style="mix-blend-mode:screen" d="M407.309 172.311C402.329 228.726 352.453 270.432 295.944 265.448C239.435 260.465 197.659 210.69 202.65 154.265C207.64 97.8497 257.496 56.1441 314.005 61.1276C370.523 66.1112 412.299 115.886 407.309 172.311Z" fill="url(#paint66_radial_201_864)"/>
<path style="mix-blend-mode:screen" d="M569.139 225.497C562.51 300.574 496.139 356.07 420.948 349.44C345.746 342.81 290.156 276.577 296.796 201.489C303.425 126.412 369.776 70.916 444.978 77.5463C520.189 84.1766 575.779 150.409 569.139 225.507L569.139 225.497Z" fill="url(#paint67_radial_201_864)"/>
<g style="mix-blend-mode:screen">
<path d="M565.387 275.717C525.471 376.967 410.878 426.75 309.459 386.897C208.029 347.043 158.171 232.639 198.088 131.388C238.004 30.1275 352.597 -19.6553 454.026 20.208C555.455 60.0614 605.314 174.466 565.397 275.727L565.387 275.717Z" fill="url(#paint68_radial_201_864)"/>
</g>
<g style="mix-blend-mode:screen">
<path d="M568.54 276.957C527.941 379.946 411.396 430.569 308.226 390.034C205.066 349.499 154.356 233.145 194.945 130.157C235.554 27.159 352.099 -23.4645 455.259 17.0704C558.419 57.6052 609.139 173.969 568.54 276.957Z" fill="url(#paint69_radial_201_864)"/>
</g>
</g>
<defs>
<radialGradient id="paint0_radial_201_864" cx="0" cy="0" r="1" gradientUnits="userSpaceOnUse" gradientTransform="translate(151.255 378.696) rotate(5.05034) scale(96.3918 96.2345)">
<stop stop-color="#050A05"/>
<stop offset="0.69" stop-color="#050A05"/>
<stop offset="0.76" stop-color="#DE0005"/>
<stop offset="0.81" stop-color="#FFD405"/>
<stop offset="0.87" stop-color="#05FF05"/>
<stop offset="0.92" stop-color="#05A6FF"/>
<stop offset="0.98" stop-color="#A60AFF"/>
<stop offset="0.99" stop-color="#050A05"/>
</radialGradient>
<radialGradient id="paint1_radial_201_864" cx="0" cy="0" r="1" gradientUnits="userSpaceOnUse" gradientTransform="translate(385.675 204.104) rotate(5.05034) scale(105.623 105.451)">
<stop offset="0.38" stop-color="#969696"/>
<stop offset="1"/>
</radialGradient>
<radialGradient id="paint2_radial_201_864" cx="0" cy="0" r="1" gradientUnits="userSpaceOnUse" gradientTransform="translate(385.714 200.623) rotate(97.9201) scale(4.24233 121.1)">
<stop stop-color="white"/>
<stop offset="1"/>
</radialGradient>
<radialGradient id="paint3_radial_201_864" cx="0" cy="0" r="1" gradientUnits="userSpaceOnUse" gradientTransform="translate(429.218 293.939) rotate(64.3605) scale(5.89788 84.1301)">
<stop stop-color="white"/>
<stop offset="1"/>
</radialGradient>
<radialGradient id="paint4_radial_201_864" cx="0" cy="0" r="1" gradientUnits="userSpaceOnUse" gradientTransform="translate(463.569 255.562) rotate(34.424) scale(7.81842 111.343)">
<stop stop-color="white"/>
<stop offset="1"/>
</radialGradient>
<radialGradient id="paint5_radial_201_864" cx="0" cy="0" r="1" gradientUnits="userSpaceOnUse" gradientTransform="translate(417.508 205.989) rotate(8.62457) scale(3.76963 107.264)">
<stop stop-color="white"/>
<stop offset="1"/>
</radialGradient>
<radialGradient id="paint6_radial_201_864" cx="0" cy="0" r="1" gradientUnits="userSpaceOnUse" gradientTransform="translate(461.018 163.185) rotate(-25.5647) scale(6.70214 95.4086)">
<stop stop-color="white"/>
<stop offset="1"/>
</radialGradient>
<radialGradient id="paint7_radial_201_864" cx="0" cy="0" r="1" gradientUnits="userSpaceOnUse" gradientTransform="translate(431.937 128.001) rotate(-55.4882) scale(7.22881 103.074)">
<stop stop-color="white"/>
<stop offset="1"/>
</radialGradient>
<radialGradient id="paint8_radial_201_864" cx="0" cy="0" r="1" gradientUnits="userSpaceOnUse" gradientTransform="translate(294.534 271.629) rotate(143.423) scale(4.66505 66.4469)">
<stop stop-color="white"/>
<stop offset="1"/>
</radialGradient>
<radialGradient id="paint9_radial_201_864" cx="0" cy="0" r="1" gradientUnits="userSpaceOnUse" gradientTransform="translate(342.1 302.865) rotate(113.512) scale(3.23547 46.1584)">
<stop stop-color="white"/>
<stop offset="1"/>
</radialGradient>
<radialGradient id="paint10_radial_201_864" cx="0" cy="0" r="1" gradientUnits="userSpaceOnUse" gradientTransform="translate(397.773 310.374) rotate(83.4063) scale(4.29332 61.278)">
<stop stop-color="white"/>
<stop offset="1"/>
</radialGradient>
<radialGradient id="paint11_radial_201_864" cx="0" cy="0" r="1" gradientUnits="userSpaceOnUse" gradientTransform="translate(443.46 280.442) rotate(53.3323) scale(4.14033 59.0262)">
<stop stop-color="white"/>
<stop offset="1"/>
</radialGradient>
<radialGradient id="paint12_radial_201_864" cx="0" cy="0" r="1" gradientUnits="userSpaceOnUse" gradientTransform="translate(466.847 236.996) rotate(23.4438) scale(3.67525 52.3122)">
<stop stop-color="white"/>
<stop offset="1"/>
</radialGradient>
<radialGradient id="paint13_radial_201_864" cx="0" cy="0" r="1" gradientUnits="userSpaceOnUse" gradientTransform="translate(472.816 190.457) rotate(-6.57057) scale(3.97738 56.5867)">
<stop stop-color="white"/>
<stop offset="1"/>
</radialGradient>
<radialGradient id="paint14_radial_201_864" cx="0" cy="0" r="1" gradientUnits="userSpaceOnUse" gradientTransform="translate(454.98 269.884) rotate(44.1806) scale(5.76312 82.1185)">
<stop stop-color="white"/>
<stop offset="1"/>
</radialGradient>
<radialGradient id="paint15_radial_201_864" cx="0" cy="0" r="1" gradientUnits="userSpaceOnUse" gradientTransform="translate(471.999 223.163) rotate(14.0962) scale(4.00504 56.988)">
<stop stop-color="white"/>
<stop offset="1"/>
</radialGradient>
<radialGradient id="paint16_radial_201_864" cx="0" cy="0" r="1" gradientUnits="userSpaceOnUse" gradientTransform="translate(464.722 177.463) rotate(-15.9364) scale(5.30246 75.4552)">
<stop stop-color="white"/>
<stop offset="1"/>
</radialGradient>
<radialGradient id="paint17_radial_201_864" cx="0" cy="0" r="1" gradientUnits="userSpaceOnUse" gradientTransform="translate(443.951 137.652) rotate(-45.7248) scale(5.11718 72.9249)">
<stop stop-color="white"/>
<stop offset="1"/>
</radialGradient>
<radialGradient id="paint18_radial_201_864" cx="0" cy="0" r="1" gradientUnits="userSpaceOnUse" gradientTransform="translate(403.232 114.38) rotate(-75.8604) scale(4.54024 64.7936)">
<stop stop-color="white"/>
<stop offset="1"/>
</radialGradient>
<radialGradient id="paint19_radial_201_864" cx="0" cy="0" r="1" gradientUnits="userSpaceOnUse" gradientTransform="translate(355.025 113.247) rotate(-105.988) scale(4.89824 69.8969)">
<stop stop-color="white"/>
<stop offset="1"/>
</radialGradient>
<radialGradient id="paint20_radial_201_864" cx="0" cy="0" r="1" gradientUnits="userSpaceOnUse" gradientTransform="translate(455.532 48.0871) rotate(114.313) scale(2.61145 149.019)">
<stop stop-color="white"/>
<stop offset="1"/>
</radialGradient>
<radialGradient id="paint21_radial_201_864" cx="0" cy="0" r="1" gradientUnits="userSpaceOnUse" gradientTransform="translate(395.812 306.428) rotate(84.2377) scale(7.24115 103.353)">
<stop stop-color="white"/>
<stop offset="1"/>
</radialGradient>
<radialGradient id="paint22_radial_201_864" cx="0" cy="0" r="1" gradientUnits="userSpaceOnUse" gradientTransform="translate(422.507 254.011) rotate(54.2727) scale(4.79398 136.697)">
<stop stop-color="white"/>
<stop offset="1"/>
</radialGradient>
<radialGradient id="paint23_radial_201_864" cx="0" cy="0" r="1" gradientUnits="userSpaceOnUse" gradientTransform="translate(465.666 238.01) rotate(24.3927) scale(4.65063 132.396)">
<stop stop-color="white"/>
<stop offset="1"/>
</radialGradient>
<radialGradient id="paint24_radial_201_864" cx="0" cy="0" r="1" gradientUnits="userSpaceOnUse" gradientTransform="translate(462.533 188.049) rotate(-5.65206) scale(8.22217 182.648)">
<stop stop-color="white"/>
<stop offset="1"/>
</radialGradient>
<radialGradient id="paint25_radial_201_864" cx="0" cy="0" r="1" gradientUnits="userSpaceOnUse" gradientTransform="translate(344.683 227.676) rotate(-35.5171) scale(2.21753 126.335)">
<stop stop-color="white"/>
<stop offset="1"/>
</radialGradient>
<radialGradient id="paint26_radial_201_864" cx="0" cy="0" r="1" gradientUnits="userSpaceOnUse" gradientTransform="translate(276.567 236.916) rotate(163.564) scale(5.72896 81.5256)">
<stop stop-color="white"/>
<stop offset="1"/>
</radialGradient>
<radialGradient id="paint27_radial_201_864" cx="0" cy="0" r="1" gradientUnits="userSpaceOnUse" gradientTransform="translate(308.498 285.299) rotate(133.375) scale(3.97873 56.7038)">
<stop stop-color="white"/>
<stop offset="1"/>
</radialGradient>
<radialGradient id="paint28_radial_201_864" cx="0" cy="0" r="1" gradientUnits="userSpaceOnUse" gradientTransform="translate(360.687 305.893) rotate(103.449) scale(5.25978 75.0634)">
<stop stop-color="white"/>
<stop offset="1"/>
</radialGradient>
<radialGradient id="paint29_radial_201_864" cx="0" cy="0" r="1" gradientUnits="userSpaceOnUse" gradientTransform="translate(414.305 300.497) rotate(73.5115) scale(5.08037 72.4948)">
<stop stop-color="white"/>
<stop offset="1"/>
</radialGradient>
<radialGradient id="paint30_radial_201_864" cx="0" cy="0" r="1" gradientUnits="userSpaceOnUse" gradientTransform="translate(454.027 266.822) rotate(43.2806) scale(4.51555 64.3386)">
<stop stop-color="white"/>
<stop offset="1"/>
</radialGradient>
<radialGradient id="paint31_radial_201_864" cx="0" cy="0" r="1" gradientUnits="userSpaceOnUse" gradientTransform="translate(468.979 221.39) rotate(13.4072) scale(4.87337 69.3423)">
<stop stop-color="white"/>
<stop offset="1"/>
</radialGradient>
<radialGradient id="paint32_radial_201_864" cx="0" cy="0" r="1" gradientUnits="userSpaceOnUse" gradientTransform="translate(431.271 296.563) rotate(63.94) scale(7.08956 101.127)">
<stop stop-color="white"/>
<stop offset="1"/>
</radialGradient>
<radialGradient id="paint33_radial_201_864" cx="0" cy="0" r="1" gradientUnits="userSpaceOnUse" gradientTransform="translate(463.366 254.542) rotate(33.9842) scale(4.91997 70.0645)">
<stop stop-color="white"/>
<stop offset="1"/>
</radialGradient>
<radialGradient id="paint34_radial_201_864" cx="0" cy="0" r="1" gradientUnits="userSpaceOnUse" gradientTransform="translate(321.695 196.413) rotate(4.18176) scale(3.26053 92.7729)">
<stop stop-color="white"/>
<stop offset="1"/>
</radialGradient>
<radialGradient id="paint35_radial_201_864" cx="0" cy="0" r="1" gradientUnits="userSpaceOnUse" gradientTransform="translate(463.717 161.461) rotate(-25.9843) scale(6.30235 89.719)">
<stop stop-color="white"/>
<stop offset="1"/>
</radialGradient>
<radialGradient id="paint36_radial_201_864" cx="0" cy="0" r="1" gradientUnits="userSpaceOnUse" gradientTransform="translate(431.205 128.142) rotate(-55.9284) scale(5.58209 79.5958)">
<stop stop-color="white"/>
<stop offset="1"/>
</radialGradient>
<radialGradient id="paint37_radial_201_864" cx="0" cy="0" r="1" gradientUnits="userSpaceOnUse" gradientTransform="translate(387.46 109.703) rotate(-86.0163) scale(6.02671 86.0217)">
<stop stop-color="white"/>
<stop offset="1"/>
</radialGradient>
<radialGradient id="paint38_radial_201_864" cx="0" cy="0" r="1" gradientUnits="userSpaceOnUse" gradientTransform="translate(383.875 203.129) rotate(74.6731) scale(65.964 66.057)">
<stop offset="0.85" stop-color="white"/>
<stop offset="0.91" stop-color="white"/>
<stop offset="1" stop-color="white"/>
</radialGradient>
<radialGradient id="paint39_radial_201_864" cx="0" cy="0" r="1" gradientUnits="userSpaceOnUse" gradientTransform="translate(125.5 398.476) rotate(101.385) scale(112.795 112.968)">
<stop stop-color="white"/>
<stop offset="1" stop-color="white"/>
</radialGradient>
<radialGradient id="paint40_radial_201_864" cx="0" cy="0" r="1" gradientUnits="userSpaceOnUse" gradientTransform="translate(272.799 293.02) rotate(101.385) scale(6.51411 6.52412)">
<stop stop-color="#FF69FF"/>
<stop offset="0.03" stop-color="#F86BFF"/>
<stop offset="0.2" stop-color="#D978FF"/>
<stop offset="0.37" stop-color="#C182FF"/>
<stop offset="0.56" stop-color="#B089FF"/>
<stop offset="0.76" stop-color="#A68DFF"/>
<stop offset="1" stop-color="#A38FFF"/>
</radialGradient>
<radialGradient id="paint41_radial_201_864" cx="0" cy="0" r="1" gradientUnits="userSpaceOnUse" gradientTransform="translate(261.281 300.672) rotate(101.385) scale(9.76927 9.78427)">
<stop stop-color="#FFC9FF"/>
<stop offset="0.5" stop-color="#FFD6FF"/>
<stop offset="1" stop-color="#FFDEFF"/>
</radialGradient>
<radialGradient id="paint42_radial_201_864" cx="0" cy="0" r="1" gradientUnits="userSpaceOnUse" gradientTransform="translate(328.184 256.428) rotate(101.386) scale(14.2281 14.2499)">
<stop stop-color="white"/>
<stop offset="1" stop-color="white"/>
</radialGradient>
<radialGradient id="paint43_radial_201_864" cx="0" cy="0" r="1" gradientUnits="userSpaceOnUse" gradientTransform="translate(314.51 266.991) rotate(101.385) scale(18.1153 18.1432)">
<stop stop-color="white"/>
<stop offset="1" stop-color="white"/>
</radialGradient>
<radialGradient id="paint44_radial_201_864" cx="0" cy="0" r="1" gradientUnits="userSpaceOnUse" gradientTransform="translate(377.49 224.715) rotate(-125.087) scale(124.654 10.7518)">
<stop stop-color="white"/>
<stop offset="1"/>
</radialGradient>
<radialGradient id="paint45_radial_201_864" cx="0" cy="0" r="1" gradientUnits="userSpaceOnUse" gradientTransform="translate(333.065 189.543) rotate(103.348) scale(102.374 7.42947)">
<stop stop-color="white"/>
<stop offset="1"/>
</radialGradient>
<radialGradient id="paint46_radial_201_864" cx="0" cy="0" r="1" gradientUnits="userSpaceOnUse" gradientTransform="translate(392.393 291.095) rotate(-166.623) scale(78.4213 5.67425)">
<stop stop-color="white"/>
<stop offset="1"/>
</radialGradient>
<radialGradient id="paint47_radial_201_864" cx="0" cy="0" r="1" gradientUnits="userSpaceOnUse" gradientTransform="translate(385.507 163.659) rotate(5.04035) scale(155.486 6.55911)">
<stop stop-color="white"/>
<stop offset="1"/>
</radialGradient>
<radialGradient id="paint48_radial_201_864" cx="0" cy="0" r="1" gradientUnits="userSpaceOnUse" gradientTransform="translate(411.684 226.599) rotate(-50.7058) scale(201.518 8.51788)">
<stop stop-color="white"/>
<stop offset="1"/>
</radialGradient>
<radialGradient id="paint49_radial_201_864" cx="0" cy="0" r="1" gradientUnits="userSpaceOnUse" gradientTransform="translate(362.613 235.751) rotate(31.516) scale(163.823 9.22235)">
<stop stop-color="white"/>
<stop offset="1"/>
</radialGradient>
<radialGradient id="paint50_radial_201_864" cx="0" cy="0" r="1" gradientUnits="userSpaceOnUse" gradientTransform="translate(382.322 205.804) rotate(-24.1962) scale(86.966 6.11778)">
<stop stop-color="white"/>
<stop offset="1"/>
</radialGradient>
<radialGradient id="paint51_radial_201_864" cx="0" cy="0" r="1" gradientUnits="userSpaceOnUse" gradientTransform="translate(413.597 218.825) rotate(110.909) scale(114.641 8.08342)">
<stop stop-color="white"/>
<stop offset="1"/>
</radialGradient>
<radialGradient id="paint52_radial_201_864" cx="0" cy="0" r="1" gradientUnits="userSpaceOnUse" gradientTransform="translate(389.545 202.019) rotate(55.0231) scale(98.8738 5.9956)">
<stop stop-color="white"/>
<stop offset="1"/>
</radialGradient>
<radialGradient id="paint53_radial_201_864" cx="0" cy="0" r="1" gradientUnits="userSpaceOnUse" gradientTransform="translate(386.234 202.728) rotate(5.05034) scale(46.4217 46.3459)">
<stop offset="0.39" stop-color="white"/>
<stop offset="1"/>
</radialGradient>
<radialGradient id="paint54_radial_201_864" cx="0" cy="0" r="1" gradientUnits="userSpaceOnUse" gradientTransform="translate(232.727 316.632) rotate(5.05034) scale(64.0425 63.9381)">
<stop offset="0.27" stop-color="#050A05"/>
<stop offset="0.54" stop-color="#28231E"/>
<stop offset="0.79" stop-color="#050A05"/>
</radialGradient>
<radialGradient id="paint55_radial_201_864" cx="0" cy="0" r="1" gradientUnits="userSpaceOnUse" gradientTransform="translate(175.396 358.518) rotate(5.05034) scale(89.6095 89.4633)">
<stop offset="0.27" stop-color="#050A05"/>
<stop offset="0.54" stop-color="#1E2328"/>
<stop offset="0.79" stop-color="#050A05"/>
</radialGradient>
<radialGradient id="paint56_radial_201_864" cx="0" cy="0" r="1" gradientUnits="userSpaceOnUse" gradientTransform="translate(502.871 118.398) rotate(5.05034) scale(35.5792 35.5211)">
<stop stop-color="#DCDCDC"/>
<stop offset="1" stop-color="#050A05"/>
</radialGradient>
<radialGradient id="paint57_radial_201_864" cx="0" cy="0" r="1" gradientUnits="userSpaceOnUse" gradientTransform="translate(169.743 365.88) rotate(5.05034) scale(35.5792 35.5212)">
<stop stop-color="#C8C8C8"/>
<stop offset="1" stop-color="#050A05"/>
</radialGradient>
<radialGradient id="paint58_radial_201_864" cx="0" cy="0" r="1" gradientUnits="userSpaceOnUse" gradientTransform="translate(278.871 283.812) rotate(5.05034) scale(24.278 24.2384)">
<stop offset="0.51" stop-color="#C8C8C8"/>
<stop offset="1" stop-color="#050A05"/>
</radialGradient>
<radialGradient id="paint59_radial_201_864" cx="0" cy="0" r="1" gradientUnits="userSpaceOnUse" gradientTransform="translate(215.918 324.771) rotate(5.05034) scale(46.4861 46.4103)">
<stop offset="0.51" stop-color="#C8C8C8"/>
<stop offset="1" stop-color="#050A05"/>
</radialGradient>
<radialGradient id="paint60_radial_201_864" cx="0" cy="0" r="1" gradientUnits="userSpaceOnUse" gradientTransform="translate(261.248 292.483) rotate(-32.279) scale(45.6892 13.5468)">
<stop offset="0.18" stop-color="#E6E6E6"/>
<stop offset="0.58" stop-color="#050A05"/>
</radialGradient>
<radialGradient id="paint61_radial_201_864" cx="0" cy="0" r="1" gradientUnits="userSpaceOnUse" gradientTransform="translate(192.918 343.435) rotate(-32.279) scale(45.6892 13.5468)">
<stop offset="0.18" stop-color="#E6E6E6"/>
<stop offset="0.58" stop-color="#050A05"/>
</radialGradient>
<radialGradient id="paint62_radial_201_864" cx="0" cy="0" r="1" gradientUnits="userSpaceOnUse" gradientTransform="translate(208.734 331.477) rotate(-32.269) scale(20.0832 13.5468)">
<stop offset="0.18" stop-color="#E6E6E6"/>
<stop offset="0.58" stop-color="#050A05"/>
</radialGradient>
<radialGradient id="paint63_radial_201_864" cx="0" cy="0" r="1" gradientUnits="userSpaceOnUse" gradientTransform="translate(482.908 133.345) rotate(-32.269) scale(20.0832 13.5468)">
<stop offset="0.18" stop-color="#E6E6E6"/>
<stop offset="0.58" stop-color="#050A05"/>
</radialGradient>
<radialGradient id="paint64_radial_201_864" cx="0" cy="0" r="1" gradientUnits="userSpaceOnUse" gradientTransform="translate(455.929 147.854) rotate(5.05034) scale(54.872 54.7824)">
<stop offset="0.27" stop-color="#050A05"/>
<stop offset="0.54" stop-color="#505050"/>
<stop offset="0.79" stop-color="#050A05"/>
</radialGradient>
<radialGradient id="paint65_radial_201_864" cx="0" cy="0" r="1" gradientUnits="userSpaceOnUse" gradientTransform="translate(313.541 256.315) rotate(5.05034) scale(67.4621 67.3521)">
<stop stop-color="#050A05"/>
<stop offset="0.54" stop-color="#1E2323"/>
<stop offset="0.79" stop-color="#050A05"/>
</radialGradient>
<radialGradient id="paint66_radial_201_864" cx="0" cy="0" r="1" gradientUnits="userSpaceOnUse" gradientTransform="translate(308.285 163.618) rotate(5.05034) scale(101.995 101.829)">
<stop stop-color="#050A05"/>
<stop offset="0.54" stop-color="#1E281E"/>
<stop offset="0.79" stop-color="#050A05"/>
</radialGradient>
<radialGradient id="paint67_radial_201_864" cx="0" cy="0" r="1" gradientUnits="userSpaceOnUse" gradientTransform="translate(435.36 213.476) rotate(5.05034) scale(135.728 135.507)">
<stop stop-color="#050A05"/>
<stop offset="0.54" stop-color="#1E2328"/>
<stop offset="0.79" stop-color="#050A05"/>
</radialGradient>
<radialGradient id="paint68_radial_201_864" cx="0" cy="0" r="1" gradientUnits="userSpaceOnUse" gradientTransform="translate(381.717 203.523) rotate(21.4562) scale(197.315 197.073)">
<stop stop-color="#C8C896"/>
<stop offset="1"/>
</radialGradient>
<radialGradient id="paint69_radial_201_864" cx="0" cy="0" r="1" gradientUnits="userSpaceOnUse" gradientTransform="translate(381.717 203.523) rotate(21.4562) scale(200.687 200.44)">
<stop stop-color="#967878"/>
<stop offset="1"/>
</radialGradient>
<clipPath id="clip0_201_864">
<rect width="580" height="512" fill="white" transform="translate(4.18115) rotate(0.46789)"/>
</clipPath>
</defs>
</svg>
