<svg width="585" height="513" viewBox="0 0 585 513" fill="none" xmlns="http://www.w3.org/2000/svg">
<g opacity="0.7">
<path style="mix-blend-mode:screen" d="M243.548 387.14C238.833 440.46 191.709 479.877 138.301 475.168C84.893 470.459 45.4093 423.422 50.1249 370.092C54.8404 316.772 101.964 277.355 155.372 282.064C208.78 286.774 248.264 333.811 243.548 387.13L243.548 387.14Z" fill="url(#paint0_radial_281_3527)" fill-opacity="0.2"/>
<path style="mix-blend-mode:screen" d="M488.894 212.097C483.728 270.532 432.104 313.718 373.571 308.558C315.039 303.399 271.78 251.859 276.957 193.423C282.113 134.997 333.747 91.8023 392.28 96.9717C450.802 102.131 494.06 153.681 488.894 212.107L488.894 212.097Z" fill="url(#paint1_radial_281_3527)" fill-opacity="0.4"/>
<path style="mix-blend-mode:soft-light" d="M448.505 214.805C455.691 179.106 432.529 144.324 396.761 137.139C361.002 129.974 326.163 153.087 318.988 188.786C311.792 224.506 334.954 259.268 370.722 266.442C406.481 273.627 441.31 250.514 448.505 214.795L448.505 214.805ZM333.43 191.703C339.025 163.969 366.079 145.992 393.839 151.588C421.619 157.163 439.617 184.164 434.033 211.898C428.439 239.622 401.394 257.599 373.604 252.013C345.834 246.438 327.836 219.437 333.42 191.703L333.43 191.703Z" fill="url(#paint2_radial_281_3527)"/>
<path style="mix-blend-mode:screen" d="M94.7023 509.335C31.4825 496.617 -9.43998 435.175 3.25729 372.06C15.9645 308.945 77.5369 268.062 140.747 280.76C203.957 293.458 244.909 354.929 232.182 418.034C219.475 481.14 157.912 522.013 94.6923 509.335L94.7023 509.335Z" fill="url(#paint3_radial_281_3527)" fill-opacity="0.2"/>
<path style="mix-blend-mode:soft-light" d="M264.822 295.25C261.256 294.533 258.949 291.078 259.677 287.518C260.384 283.968 263.855 281.676 267.411 282.382C270.967 283.108 273.273 286.553 272.566 290.114C271.848 293.673 268.387 295.966 264.832 295.25L264.822 295.25Z" fill="url(#paint4_radial_281_3527)"/>
<path style="mix-blend-mode:soft-light" d="M252.571 306.166C247.232 305.096 243.772 299.908 244.853 294.578C245.914 289.248 251.121 285.795 256.459 286.874C261.788 287.954 265.248 293.131 264.177 298.471C263.096 303.791 257.899 307.235 252.57 306.176L252.571 306.166Z" fill="url(#paint5_radial_281_3527)"/>
<path style="mix-blend-mode:screen" d="M319.075 266C311.306 264.443 306.28 256.881 307.839 249.135C309.399 241.369 316.973 236.341 324.742 237.898C332.502 239.466 337.548 247.017 335.988 254.773C334.418 262.53 326.855 267.558 319.085 266L319.075 266Z" fill="url(#paint6_radial_281_3527)"/>
<path style="mix-blend-mode:screen" d="M311.747 244.705C321.648 246.688 328.054 256.312 326.068 266.187C324.072 276.071 314.431 282.477 304.541 280.484C294.64 278.49 288.233 268.866 290.23 258.992C292.226 249.107 301.856 242.711 311.757 244.715L311.747 244.705Z" fill="url(#paint7_radial_281_3527)"/>
<path d="M430.064 205.481C427.789 231.16 405.096 250.139 379.384 247.867C353.662 245.595 334.642 222.949 336.917 197.27C339.192 171.59 361.884 152.612 387.606 154.884C413.328 157.146 432.329 179.811 430.074 205.481L430.064 205.481Z" fill="url(#paint8_radial_281_3527)" fill-opacity="0.2"/>
<path style="mix-blend-mode:screen" d="M293.139 321.766C290.006 357.19 258.704 383.369 223.222 380.251C187.739 377.122 161.506 345.871 164.639 310.438C167.761 275.014 199.073 248.825 234.556 251.953C270.038 255.082 296.272 286.343 293.139 321.766Z" fill="url(#paint9_radial_281_3527)"/>
<path style="mix-blend-mode:screen" d="M261.049 366.227C256.664 415.794 212.865 452.429 163.216 448.059C113.556 443.69 76.849 399.942 81.2445 350.375C85.6201 300.808 129.419 264.163 179.078 268.542C228.728 272.922 265.445 316.659 261.049 366.227Z" fill="url(#paint10_radial_281_3527)"/>
<path style="mix-blend-mode:screen" d="M536.651 119.576C534.914 139.263 517.515 153.803 497.805 152.068C478.085 150.333 463.52 132.963 465.258 113.285C467.005 93.5979 484.393 79.0582 504.104 80.7929C523.824 82.5277 538.398 99.8982 536.651 119.576Z" fill="url(#paint11_radial_281_3527)"/>
<path style="mix-blend-mode:screen" d="M201.156 368.855C199.419 388.543 182.02 403.082 162.31 401.348C142.589 399.613 128.025 382.242 129.762 362.565C131.51 342.877 148.898 328.337 168.609 330.072C188.329 331.807 202.903 349.178 201.156 368.855Z" fill="url(#paint12_radial_281_3527)"/>
<path style="mix-blend-mode:screen" d="M299.723 285.196C298.536 298.623 286.662 308.546 273.213 307.36C259.753 306.175 249.803 294.33 251.001 280.893C252.188 267.466 264.052 257.533 277.511 258.729C290.96 259.914 300.9 271.759 299.723 285.196Z" fill="url(#paint13_radial_281_3527)"/>
<path style="mix-blend-mode:screen" d="M258.594 328.407C256.339 354.126 233.606 373.134 207.844 370.862C182.082 368.59 163.042 345.904 165.317 320.184C167.583 294.465 190.306 275.457 216.067 277.729C241.829 279.991 260.88 302.677 258.584 328.397L258.594 328.407Z" fill="url(#paint14_radial_281_3527)"/>
<path style="mix-blend-mode:screen" d="M294.294 269.523C298.263 275.781 284.105 291.811 262.674 305.352C241.252 318.882 220.672 324.79 216.712 318.542C212.752 312.295 226.901 296.254 248.322 282.714C269.743 269.173 290.324 263.275 294.284 269.523L294.294 269.523Z" fill="url(#paint15_radial_281_3527)"/>
<path style="mix-blend-mode:screen" d="M225.624 320.608C229.594 326.865 215.436 342.895 194.004 356.436C172.583 369.967 152.002 375.874 148.042 369.627C144.083 363.379 158.231 347.339 179.653 333.798C201.074 320.258 221.655 314.36 225.624 320.608Z" fill="url(#paint16_radial_281_3527)"/>
<path style="mix-blend-mode:screen" d="M224.418 319.293C228.388 325.54 223.987 335.415 214.6 341.355C205.213 347.284 194.39 347.016 190.431 340.769C186.471 334.521 190.862 324.646 200.258 318.707C209.635 312.777 220.468 313.035 224.428 319.293L224.418 319.293Z" fill="url(#paint17_radial_281_3527)"/>
<path style="mix-blend-mode:screen" d="M499.045 121.161C503.015 127.409 498.614 137.283 489.227 143.223C479.84 149.152 469.017 148.885 465.058 142.637C461.098 136.389 465.489 126.514 474.885 120.575C484.262 114.645 495.095 114.903 499.055 121.161L499.045 121.161Z" fill="url(#paint18_radial_281_3527)"/>
<path style="mix-blend-mode:screen" d="M508.739 150.952C506.057 181.3 479.225 203.731 448.827 201.052C418.409 198.373 395.94 171.596 398.623 141.248C401.305 110.891 428.137 88.4596 458.534 91.1382C488.942 93.8168 511.421 120.595 508.729 150.952L508.739 150.952Z" fill="url(#paint19_radial_281_3527)"/>
<path style="mix-blend-mode:screen" d="M377.967 261.312C374.67 298.626 341.68 326.206 304.304 322.913C266.927 319.62 239.31 286.694 242.598 249.379C245.896 212.064 278.875 184.474 316.262 187.778C353.629 191.071 381.265 223.997 377.967 261.312Z" fill="url(#paint20_radial_281_3527)"/>
<path style="mix-blend-mode:screen" d="M407.309 171.011C402.329 227.426 352.453 269.132 295.944 264.148C239.436 259.164 197.66 209.39 202.65 152.965C207.64 96.5494 257.496 54.8438 314.005 59.8273C370.523 64.8109 412.299 114.586 407.309 171.011Z" fill="url(#paint21_radial_281_3527)"/>
<path style="mix-blend-mode:screen" d="M569.139 224.197C562.51 299.274 496.139 354.77 420.947 348.139C345.746 341.509 290.156 275.276 296.795 200.189C303.425 125.111 369.776 69.6157 444.977 76.246C520.189 82.8763 575.779 149.109 569.139 224.207L569.139 224.197Z" fill="url(#paint22_radial_281_3527)" fill-opacity="0.5"/>
<path d="M565.387 274.416C525.471 375.667 410.878 425.45 309.459 385.596C208.029 345.743 158.171 231.339 198.088 130.088C238.004 28.8272 352.597 -20.9556 454.026 18.9077C555.455 58.7611 605.314 173.166 565.397 274.426L565.387 274.416Z" fill="url(#paint23_radial_281_3527)"/>
<path d="M568.54 275.657C527.941 378.645 411.396 429.269 308.226 388.734C205.066 348.199 154.356 231.845 194.945 128.857C235.554 25.8587 352.099 -24.7648 455.259 15.7701C558.419 56.3049 609.139 172.669 568.54 275.657Z" fill="url(#paint24_radial_281_3527)"/>
</g>
<defs>
<radialGradient id="paint0_radial_281_3527" cx="0" cy="0" r="1" gradientUnits="userSpaceOnUse" gradientTransform="translate(151.255 377.396) rotate(5.05034) scale(96.3918 96.2345)">
<stop stop-color="white"/>
<stop offset="0.69" stop-color="white" stop-opacity="0"/>
<stop offset="0.76" stop-color="#DE0005"/>
<stop offset="0.81" stop-color="#FFD405"/>
<stop offset="0.87" stop-color="#05FF05"/>
<stop offset="0.92" stop-color="#05A6FF"/>
<stop offset="0.98" stop-color="#A60AFF"/>
<stop offset="0.99" stop-color="white"/>
</radialGradient>
<radialGradient id="paint1_radial_281_3527" cx="0" cy="0" r="1" gradientUnits="userSpaceOnUse" gradientTransform="translate(385.675 202.803) rotate(5.05034) scale(105.623 105.451)">
<stop offset="0.38" stop-color="#DCDDDD"/>
<stop offset="1" stop-color="white" stop-opacity="0"/>
</radialGradient>
<radialGradient id="paint2_radial_281_3527" cx="0" cy="0" r="1" gradientUnits="userSpaceOnUse" gradientTransform="translate(383.875 201.829) rotate(74.6731) scale(65.964 66.057)">
<stop offset="0.85" stop-color="white"/>
<stop offset="0.91" stop-color="white"/>
<stop offset="1" stop-color="white"/>
</radialGradient>
<radialGradient id="paint3_radial_281_3527" cx="0" cy="0" r="1" gradientUnits="userSpaceOnUse" gradientTransform="translate(125.5 397.175) rotate(101.385) scale(112.795 112.968)">
<stop offset="0.585" stop-color="white"/>
<stop offset="1" stop-color="white"/>
</radialGradient>
<radialGradient id="paint4_radial_281_3527" cx="0" cy="0" r="1" gradientUnits="userSpaceOnUse" gradientTransform="translate(272.799 291.72) rotate(101.385) scale(6.51411 6.52412)">
<stop stop-color="white"/>
<stop offset="0.0001" stop-color="white"/>
<stop offset="0.2" stop-color="white"/>
<stop offset="0.37" stop-color="white"/>
<stop offset="0.56" stop-color="white"/>
<stop offset="0.76" stop-color="white"/>
<stop offset="1" stop-color="white"/>
</radialGradient>
<radialGradient id="paint5_radial_281_3527" cx="0" cy="0" r="1" gradientUnits="userSpaceOnUse" gradientTransform="translate(261.281 299.372) rotate(101.385) scale(9.76927 9.78427)">
<stop stop-color="white"/>
<stop offset="0.5" stop-color="white"/>
<stop offset="1" stop-color="white"/>
</radialGradient>
<radialGradient id="paint6_radial_281_3527" cx="0" cy="0" r="1" gradientUnits="userSpaceOnUse" gradientTransform="translate(328.184 255.128) rotate(101.386) scale(14.2281 14.2499)">
<stop stop-color="white"/>
<stop offset="1" stop-color="white"/>
</radialGradient>
<radialGradient id="paint7_radial_281_3527" cx="0" cy="0" r="1" gradientUnits="userSpaceOnUse" gradientTransform="translate(314.51 265.691) rotate(101.385) scale(18.1153 18.1432)">
<stop stop-color="white"/>
<stop offset="1" stop-color="white"/>
</radialGradient>
<radialGradient id="paint8_radial_281_3527" cx="0" cy="0" r="1" gradientUnits="userSpaceOnUse" gradientTransform="translate(386.234 201.428) rotate(5.05034) scale(46.4217 46.3459)">
<stop offset="0.39" stop-color="white"/>
<stop offset="1" stop-color="#F3F3F3" stop-opacity="0"/>
</radialGradient>
<radialGradient id="paint9_radial_281_3527" cx="0" cy="0" r="1" gradientUnits="userSpaceOnUse" gradientTransform="translate(232.727 315.332) rotate(5.05034) scale(64.0425 63.9381)">
<stop offset="0.27" stop-color="#F3F3F3" stop-opacity="0.2"/>
<stop offset="0.54" stop-color="white"/>
<stop offset="0.79" stop-color="#F3F3F3" stop-opacity="0.05"/>
</radialGradient>
<radialGradient id="paint10_radial_281_3527" cx="0" cy="0" r="1" gradientUnits="userSpaceOnUse" gradientTransform="translate(175.396 357.217) rotate(5.05034) scale(89.6095 89.4633)">
<stop offset="0.27" stop-color="#F3F3F3" stop-opacity="0.2"/>
<stop offset="0.54" stop-color="white" stop-opacity="0.6"/>
<stop offset="0.79" stop-color="#F3F3F3" stop-opacity="0.05"/>
</radialGradient>
<radialGradient id="paint11_radial_281_3527" cx="0" cy="0" r="1" gradientUnits="userSpaceOnUse" gradientTransform="translate(502.871 117.098) rotate(5.05034) scale(35.5792 35.5211)">
<stop stop-color="#DCDCDC"/>
<stop offset="1" stop-color="#F3F3F3" stop-opacity="0"/>
</radialGradient>
<radialGradient id="paint12_radial_281_3527" cx="0" cy="0" r="1" gradientUnits="userSpaceOnUse" gradientTransform="translate(169.742 364.579) rotate(5.05034) scale(35.5792 35.5212)">
<stop stop-color="#C8C8C8"/>
<stop offset="1" stop-color="white" stop-opacity="0"/>
</radialGradient>
<radialGradient id="paint13_radial_281_3527" cx="0" cy="0" r="1" gradientUnits="userSpaceOnUse" gradientTransform="translate(278.871 282.512) rotate(5.05034) scale(24.278 24.2384)">
<stop offset="0.51" stop-color="#C8C8C8"/>
<stop offset="1" stop-color="white" stop-opacity="0"/>
</radialGradient>
<radialGradient id="paint14_radial_281_3527" cx="0" cy="0" r="1" gradientUnits="userSpaceOnUse" gradientTransform="translate(215.918 323.471) rotate(5.05034) scale(46.4861 46.4103)">
<stop offset="0.51" stop-color="#C8C8C8" stop-opacity="0.5"/>
<stop offset="1" stop-color="white" stop-opacity="0"/>
</radialGradient>
<radialGradient id="paint15_radial_281_3527" cx="0" cy="0" r="1" gradientUnits="userSpaceOnUse" gradientTransform="translate(261.248 291.183) rotate(-32.279) scale(45.6892 13.5468)">
<stop offset="0.18" stop-color="#E6E6E6" stop-opacity="0.4"/>
<stop offset="0.58" stop-color="white" stop-opacity="0"/>
</radialGradient>
<radialGradient id="paint16_radial_281_3527" cx="0" cy="0" r="1" gradientUnits="userSpaceOnUse" gradientTransform="translate(192.918 342.135) rotate(-32.279) scale(45.6892 13.5468)">
<stop offset="0.18" stop-color="#E6E6E6"/>
<stop offset="0.58" stop-color="white" stop-opacity="0"/>
</radialGradient>
<radialGradient id="paint17_radial_281_3527" cx="0" cy="0" r="1" gradientUnits="userSpaceOnUse" gradientTransform="translate(208.734 330.176) rotate(-32.269) scale(20.0832 13.5468)">
<stop offset="0.18" stop-color="#E6E6E6"/>
<stop offset="0.58" stop-color="white" stop-opacity="0"/>
</radialGradient>
<radialGradient id="paint18_radial_281_3527" cx="0" cy="0" r="1" gradientUnits="userSpaceOnUse" gradientTransform="translate(482.907 132.045) rotate(-32.269) scale(20.0832 13.5468)">
<stop offset="0.18" stop-color="#E6E6E6"/>
<stop offset="0.58" stop-color="white" stop-opacity="0"/>
</radialGradient>
<radialGradient id="paint19_radial_281_3527" cx="0" cy="0" r="1" gradientUnits="userSpaceOnUse" gradientTransform="translate(455.929 146.554) rotate(5.05034) scale(54.872 54.7824)">
<stop offset="0.27" stop-color="#F3F3F3" stop-opacity="0.2"/>
<stop offset="0.54" stop-color="white"/>
<stop offset="0.79" stop-color="#F3F3F3" stop-opacity="0.05"/>
</radialGradient>
<radialGradient id="paint20_radial_281_3527" cx="0" cy="0" r="1" gradientUnits="userSpaceOnUse" gradientTransform="translate(313.541 255.015) rotate(5.05034) scale(67.4621 67.3521)">
<stop stop-color="#F3F3F3" stop-opacity="0.2"/>
<stop offset="0.54" stop-color="white"/>
<stop offset="0.79" stop-color="#F3F3F3" stop-opacity="0.05"/>
</radialGradient>
<radialGradient id="paint21_radial_281_3527" cx="0" cy="0" r="1" gradientUnits="userSpaceOnUse" gradientTransform="translate(308.285 162.318) rotate(5.05034) scale(101.995 101.829)">
<stop stop-color="white" stop-opacity="0.2"/>
<stop offset="0.54" stop-color="#F3F3F3" stop-opacity="0.5"/>
<stop offset="0.79" stop-color="white" stop-opacity="0.05"/>
</radialGradient>
<radialGradient id="paint22_radial_281_3527" cx="0" cy="0" r="1" gradientUnits="userSpaceOnUse" gradientTransform="translate(435.36 212.175) rotate(5.05034) scale(135.728 135.507)">
<stop stop-color="white" stop-opacity="0.2"/>
<stop offset="0.54" stop-color="#F3F3F3" stop-opacity="0.5"/>
<stop offset="0.79" stop-color="white" stop-opacity="0.05"/>
</radialGradient>
<radialGradient id="paint23_radial_281_3527" cx="0" cy="0" r="1" gradientUnits="userSpaceOnUse" gradientTransform="translate(381.717 202.223) rotate(21.4562) scale(197.315 197.073)">
<stop stop-color="#F3F3F3" stop-opacity="0.3"/>
<stop offset="1" stop-color="#F3F3F3" stop-opacity="0"/>
</radialGradient>
<radialGradient id="paint24_radial_281_3527" cx="0" cy="0" r="1" gradientUnits="userSpaceOnUse" gradientTransform="translate(381.717 202.223) rotate(21.4562) scale(200.687 200.44)">
<stop stop-color="#F3F3F3"/>
<stop offset="1" stop-color="white" stop-opacity="0"/>
</radialGradient>
</defs>
</svg>
